<?xml version="1.0" encoding="UTF-8"?>
<svg id="Flag" xmlns="http://www.w3.org/2000/svg" viewBox="0 0 1400 797.2988">
  <defs>
    <style>
      .cls-1, .cls-2 {
        fill: #1d1a14;
        stroke-width: 0px;
      }

      .cls-2, .cls-3 {
        opacity: .4;
      }
    </style>
  </defs>
  <path class="cls-2" d="M264.638,448.9185c0-78.1354-56.8028-139.6718-146.1726-139.6718H35.7858v279.2805h82.6796c89.2435,0,146.1726-61.4733,146.1726-139.6087ZM71.5715,552.7414v-207.7089h46.8939c66.0175,0,110.3868,42.3496,110.3868,103.886s-44.18,103.8229-110.3868,103.8229h-46.8939Z"/>
  <path class="cls-2" d="M600.9106,448.9185c0-78.1354-56.8028-139.6718-146.1725-139.6718h-82.3641v279.2805h82.6796c88.8649,0,145.857-61.4733,145.857-139.6087ZM407.8442,552.7414v-207.7089h46.8939c66.0175,0,110.3868,42.3496,110.3868,103.886s-44.18,103.8229-110.3868,103.8229h-46.8939Z"/>
  <g class="cls-3">
    <polygon class="cls-1" points="938.5718 272.3249 848.5078 403.4763 758.5069 272.3249 715.2105 272.4511 848.5078 466.7798 981.8682 272.4511 938.5718 272.3249"/>
    <polygon class="cls-1" points="708.8991 625.3228 744.6848 625.3228 744.6848 378.6093 708.8991 326.4769 708.8991 625.3228"/>
    <polygon class="cls-1" points="952.3938 378.6093 952.3938 625.3228 988.1796 625.3228 988.1796 326.4769 952.3938 378.6093"/>
  </g>
  <g class="cls-3">
    <polygon class="cls-1" points="1082.9771 625.3228 1122.2342 625.3228 1164.079 532.04 1124.8219 532.04 1082.9771 625.3228"/>
    <polygon class="cls-1" points="1317.3203 532.04 1278.0633 532.04 1319.908 625.3228 1359.1651 625.3228 1317.3203 532.04"/>
    <path class="cls-1" d="M1221.0711,316.4417l-80.5969,179.8756h161.1937l-80.5968-179.8756ZM1221.0711,404.0442l25.2457,56.4241h-50.4914l25.2457-56.4241Z"/>
  </g>
  <path class="cls-1" d="M300.4237,448.9185h0c0-99.3418-71.0666-175.4576-181.9583-175.4576H0v175.4576h0v175.3945h118.4654c110.8917,0,181.9583-76.1158,181.9583-175.3945ZM35.7858,588.5271v-279.2805h82.6796c89.2435,0,146.1726,61.5364,146.1726,139.6718h0c0,78.1354-56.8028,139.6087-146.1726,139.6087H35.7858Z"/>
  <path class="cls-1" d="M636.6964,448.9185h0c0-99.3418-71.0666-175.4576-181.9583-175.4576h-118.4654v175.4576h0v175.3945h118.4654c110.8917,0,181.9583-76.1158,181.9583-175.3945ZM372.374,588.5271v-279.2805h82.6796c89.1804,0,146.1725,61.5364,146.1725,139.6718h0c0,78.1354-56.8028,139.6087-146.1726,139.6087h-82.6796Z"/>
  <polygon class="cls-1" points="1023.9654 625.3228 1023.9654 272.4511 981.8682 272.4511 848.5078 466.7798 715.2105 272.4511 673.1133 272.4511 673.1133 625.3228 708.8991 625.3228 708.8991 326.4769 848.5078 530.0834 988.1796 326.4769 988.1796 625.3228 1023.9654 625.3228"/>
  <path class="cls-1" d="M1239.1849,272.4511h-36.2275l-160.8151,352.8717h40.8349l41.8448-93.0935h192.4984l41.8448,93.2197h40.8349l-160.8151-352.9979ZM1140.4742,496.2541l80.5969-179.8125,80.5969,179.8125h-161.1938Z"/>
</svg>