<?xml version="1.0" encoding="UTF-8"?>
<svg id="Flag" xmlns="http://www.w3.org/2000/svg" viewBox="0 0 2400 800">
  <defs>
    <style>
      .cls-1 {
        fill: #1d1a14;
      }

      .cls-1, .cls-2 {
        stroke-width: 0px;
      }

      .cls-2 {
        fill: #959087;
      }
    </style>
  </defs>
  <g>
    <g>
      <polygon class="cls-1" points="397.896 694.997 411.4006 735.0214 452.5994 734.9235 423.3394 757.0397 431.3639 800 397.896 775.633 364.2324 799.315 372.4526 757.0397 343.4862 734.8257 384.5871 734.8257 397.896 694.997"/>
      <polygon class="cls-1" points="397.896 0 411.4006 40.0245 452.5994 39.9266 423.3394 62.0428 431.3639 105.0031 397.896 80.6361 364.2324 104.4159 372.4526 62.0428 343.4862 39.8287 384.5871 39.8287 397.896 0"/>
      <polygon class="cls-1" points="565.2355 44.7217 578.7401 84.7462 619.9388 84.6483 590.7768 106.7645 598.8012 149.7248 565.2355 125.3578 531.6697 149.0398 539.7921 106.7645 510.9236 84.5505 552.0245 84.5505 565.2355 44.7217"/>
      <polygon class="cls-1" points="222.4343 44.7217 235.9388 84.7462 277.1376 84.6483 247.8777 106.7645 255.9021 149.7248 222.4343 125.3578 188.7706 149.0398 196.893 106.7645 168.0245 84.5505 209.1254 84.5505 222.4343 44.7217"/>
      <polygon class="cls-1" points="565.2355 648.0245 578.7401 688.0489 619.9388 687.9511 590.7768 710.0673 598.8012 753.0275 565.2355 728.6605 531.6697 752.4404 539.7921 710.0673 510.9236 687.8532 552.0245 687.8532 565.2355 648.0245"/>
      <polygon class="cls-1" points="222.4343 648.0245 235.9388 688.0489 277.1376 687.9511 247.8777 710.0673 255.9021 753.0275 222.4343 728.6605 188.7706 752.4404 196.893 710.0673 168.0245 687.8532 209.1254 687.8532 222.4343 648.0245"/>
      <polygon class="cls-1" points="94.2385 175.8532 107.7431 215.8777 148.844 215.7798 119.682 237.896 127.7064 280.8563 94.2385 256.4893 60.5749 280.2691 68.6972 237.896 39.8287 215.682 80.9297 215.682 94.2385 175.8532"/>
      <polygon class="cls-1" points="697.6392 175.8532 711.2416 215.8777 752.3425 215.7798 723.1804 237.896 731.2049 280.8563 697.6392 256.4893 664.0734 280.2691 672.1957 237.896 643.3272 215.682 684.4281 215.682 697.6392 175.8532"/>
      <polygon class="cls-1" points="94.2385 522.7645 107.7431 562.6911 148.844 562.6911 119.682 584.8073 127.7064 627.7676 94.2385 603.4006 60.5749 627.0826 68.6972 584.8073 39.8287 562.4954 80.9297 562.4954 94.2385 522.7645"/>
      <polygon class="cls-1" points="697.6392 522.7645 711.2416 562.6911 752.3425 562.6911 723.1804 584.8073 731.2049 627.7676 697.6392 603.4006 664.0734 627.0826 672.1957 584.8073 643.3272 562.4954 684.4281 562.4954 697.6392 522.7645"/>
      <polygon class="cls-1" points="54.4098 347.9878 67.9144 388.0122 109.0153 387.9144 79.8532 410.0306 87.8777 452.9908 54.4098 428.6239 20.7462 452.3058 28.8685 410.0306 0 387.8165 41.1009 387.8165 54.4098 347.9878"/>
      <polygon class="cls-1" points="741.8716 347.9878 755.3762 388.0122 796.5749 387.9144 767.315 410.0306 775.3394 452.9908 741.8716 428.6239 708.208 452.3058 716.3303 410.0306 687.4618 387.8165 728.5627 387.8165 741.8716 347.9878"/>
    </g>
    <path class="cls-1" d="M464.7095,369.8397v-35.8666c0-36.819-29.8477-66.6667-66.6667-66.6667s-66.6667,29.8477-66.6667,66.6667v35.8666c-18,5.5334-33.3333,19.9-33.3333,40.8001v80.0001c0,27.2001,26.0333,43.3333,50,43.3333h100c23.9667,0,50-16.1332,50-43.3333v-80.0001c0-20.9-15.3334-35.2667-33.3333-40.8001ZM431.3761,367.3065h-66.6667v-33.3333c0-18.4095,14.9239-33.3333,33.3333-33.3333s33.3333,14.9239,33.3333,33.3333v33.3333Z"/>
  </g>
  <g>
    <g>
      <path class="cls-1" d="M1041.9996,170.0675c11.36,4.4375,22.1209,10.9844,32.2954,19.6359l-23.0432,24.0179c-8.0097-6.2727-15.5312-10.8164-22.5583-13.631-7.0334-2.8099-15.2047-4.2204-24.5044-4.2204-17.3157,0-31.484,6.9272-42.5206,20.7722-11.0335,13.8513-16.5518,35.0546-16.5518,63.6161,0,29.8611,4.3804,51.394,13.1445,64.5892,8.764,13.2015,22.1209,19.7991,40.0832,19.7991,13.6326,0,25.5314-2.9208,35.7027-8.7625v-58.4227h-33.7534l-4.5453-31.8089h80.4928v109.7058c-24.235,14.7166-49.9819,22.0702-77.2471,22.0702-32.026,0-56.5304-9.9495-73.5133-29.8611-16.9892-19.9053-25.4807-49.0089-25.4807-87.3091,0-24.449,4.596-45.4906,13.7942-63.128,9.1951-17.6343,21.5852-30.9974,37.1639-40.0848,15.5787-9.0889,32.8881-13.6326,51.9313-13.6326,14.7134,0,27.7501,2.2219,39.1101,6.6546Z"/>
      <path class="cls-1" d="M1258.159,191.976c20.8815,15.7975,31.3223,44.901,31.3223,87.3091,0,41.5444-10.2791,70.8112-30.8342,87.7957-20.5582,16.9892-46.6316,25.4791-78.2202,25.4791h-61.0218v-224.2785h55.177c34.8374,0,62.6953,7.9019,83.5769,23.6946ZM1162.2491,200.4136v160.0142h21.0971c19.04,0,33.969-5.8939,44.7901-17.6897,10.818-11.791,16.2285-32.9436,16.2285-63.4529,0-21.2033-2.7576-37.595-8.2759-49.1721-5.5183-11.5739-12.7705-19.4188-21.7469-23.5314-8.9796-4.1078-19.7468-6.1681-32.2922-6.1681h-19.8007Z"/>
      <path class="cls-1" d="M1462.9617,186.1328c15.902,11.9036,23.8547,29.7549,23.8547,53.5541,0,24.8864-8.0065,43.5492-24.0195,55.9884-16.013,12.4456-37.3256,18.6628-63.9378,18.6628h-26.2921v78.2218h-42.8439v-224.2785h66.2136c28.7739,0,51.1198,5.9542,67.0251,17.8514ZM1430.3399,272.6305c7.791-6.3789,11.6864-17.3633,11.6864-32.9436,0-26.6138-15.4741-39.9215-46.4129-39.9215h-23.0464v82.4406h23.0464c15.36,0,26.9387-3.1902,34.7265-9.5755Z"/>
      <path class="cls-1" d="M1591.652,302.6532h-27.2652v89.9066h-42.8439v-224.2785h66.8634c59.2848,0,88.9304,21.964,88.9304,65.8888,0,14.929-3.6799,27.2636-11.0335,37.0007-7.3599,9.7371-18.8245,17.6374-34.4064,23.693l58.7492,97.696h-49.3353l-49.6586-89.9066ZM1564.3868,271.8191h26.6154c13.6326,0,23.9624-2.9715,30.9958-8.9257,7.0302-5.9478,10.5485-15.5233,10.5485-28.7232,0-12.1159-3.6261-20.9354-10.8718-26.4538-7.2521-5.5167-18.6628-8.2759-34.2415-8.2759h-23.0464v72.3786Z"/>
    </g>
    <g>
      <path class="cls-2" d="M1034.541,448.5092c10.1682,3.8939,20.124,9.8481,29.8611,17.8514l-21.7469,25.3159c-13.2015-10.5993-27.0496-15.9036-41.5444-15.9036-16.6659,0-30.0228,6.7085-40.0864,20.1224-10.0604,13.4202-15.0906,34.5173-15.0906,63.2912,0,28.1321,4.9732,49.0105,14.929,62.643,9.9495,13.631,23.3697,20.4473,40.248,20.4473,8.8686,0,16.7642-1.5674,23.693-4.7053,6.9225-3.1348,14.2824-7.6277,22.0702-13.4709l20.124,25.3174c-7.5754,7.7894-17.1509,14.2808-28.7232,19.4742-11.5787,5.1934-24.5076,7.7894-38.7868,7.7894-19.4742,0-36.6758-4.5437-51.608-13.6326-14.929-9.0873-26.5076-22.4458-34.7297-40.0832-8.2252-17.6343-12.333-38.893-12.333-63.7794,0-24.449,4.2695-45.4399,12.8212-62.9663,8.5453-17.5265,20.2286-30.8342,35.053-39.9215,14.818-9.0889,31.5347-13.6326,50.1468-13.6326,13.6326,0,25.5282,1.9477,35.7027,5.8432Z"/>
      <path class="cls-2" d="M1219.0612,519.4266c14.1714,16.1223,21.2587,38.2495,21.2587,66.3753,0,17.9623-3.2457,33.8105-9.7371,47.5493-6.4914,13.7435-15.7975,24.3983-27.9118,31.9705-12.1207,7.5723-26.5076,11.36-43.1672,11.36-25.3159,0-45.1166-8.0588-59.3958-24.1811-14.2824-16.116-21.4236-38.3494-21.4236-66.6986,0-17.9576,3.2457-33.755,9.7371-47.3876,6.4914-13.631,15.8482-24.2303,28.0766-31.8073,12.2221-7.5723,26.6661-11.36,43.3289-11.36,25.3159,0,45.0595,8.0635,59.2341,24.1795ZM1122.5015,585.8019c0,20.3411,3.0841,35.3271,9.2522,44.9533,6.1649,9.6309,15.4171,14.4424,27.7501,14.4424s21.582-4.8686,27.7501-14.6057,9.249-24.6661,9.249-44.7901-3.0809-34.9975-9.249-44.6284c-6.1681-9.6262-15.3093-14.444-27.4268-14.444-24.8848,0-37.3256,19.6929-37.3256,59.0725Z"/>
      <path class="cls-2" d="M1494.458,509.3662c8.222,9.4122,12.333,22.1256,12.333,38.137v124.3098h-41.5444v-117.8184c0-18.3902-6.279-27.5885-18.8245-27.5885-6.7101,0-12.4979,2.1094-17.3664,6.3282-4.8686,4.2204-9.8988,10.7672-15.0906,19.6375v119.4413h-41.5444v-117.8184c0-18.3902-6.279-27.5885-18.8276-27.5885-6.9256,0-12.818,2.1094-17.6866,6.3282-4.8686,4.2204-9.9019,10.7672-15.0938,19.6375v119.4413h-41.5444v-171.6974h36.0261l3.2457,22.395c12.9828-18.1763,29.5378-27.2636,49.6586-27.2636,9.9526,0,18.5519,2.5452,25.804,7.6277,7.249,5.0857,12.4979,12.1714,15.7436,21.2587,6.9225-9.3013,14.5486-16.4409,22.8816-21.422,8.3266-4.9747,17.9021-7.4645,28.7232-7.4645,13.845,0,24.8816,4.7053,33.1068,14.1191Z"/>
      <path class="cls-2" d="M1692.1195,518.9401c10.3837,15.7975,15.5787,37.9754,15.5787,66.5369,0,17.7452-2.653,33.4872-7.9526,47.2259-5.306,13.7435-13.0938,24.5044-23.3697,32.2938-10.2791,7.7894-22.4505,11.6849-36.5142,11.6849-18.1747,0-32.568-6.2727-43.1672-18.8245v80.1679l-41.5444,4.5437v-242.4532h36.3525l2.2695,21.0971c6.7069-8.6515,14.3901-15.1429,23.0464-19.4742,8.6499-4.3265,17.7404-6.4914,27.262-6.4914,21.6359,0,37.6521,7.9003,48.039,23.693ZM1664.2045,585.8019c0-20.9861-2.7069-36.1338-8.1143-45.4399-5.4106-9.3013-13.5248-13.9559-24.3428-13.9559-6.9256,0-13.4171,2.1094-19.4742,6.3282-6.0603,4.2204-11.2522,9.9003-15.5787,17.0399v77.2487c8.0033,11.902,18.5011,17.8514,31.484,17.8514,24.0163,0,36.0261-19.6882,36.0261-59.0725Z"/>
      <path class="cls-2" d="M1758.1683,665.16c-7.4677-7.6784-11.1983-18.5519-11.1983-32.6203v-201.2337l41.5444-4.5437v204.4794c0,8.0081,3.2457,12.0097,9.7371,12.0097,3.2457,0,6.4914-.5388,9.7371-1.6229l8.764,29.2113c-8.6563,3.8939-17.8514,5.8416-27.5885,5.8416-13.2015,0-23.5314-3.8448-30.9958-11.5216Z"/>
      <path class="cls-2" d="M1883.7745,420.4326c4.8686,4.8686,7.3028,10.8734,7.3028,18.0146s-2.4343,13.0938-7.3028,17.8514c-4.8686,4.7624-11.1951,7.1396-18.9861,7.1396-7.5754,0-13.7942-2.3772-18.6628-7.1396-4.8686-4.7576-7.3028-10.7118-7.3028-17.8514s2.4343-13.1461,7.3028-18.0146c4.8686-4.8686,11.0874-7.3028,18.6628-7.3028,7.791,0,14.1175,2.4343,18.9861,7.3028ZM1885.8855,500.1156v171.6974h-41.5444v-171.6974h41.5444Z"/>
      <path class="cls-2" d="M2065.8604,641.1405c2.0539,3.1395,5.3567,5.5738,9.8988,7.3028l-8.764,27.5885c-9.7371-.8669-17.6866-3.2457-23.8547-7.1396-6.1681-3.8955-10.8718-9.8433-14.1175-17.8514-5.8448,8.6563-13.1476,15.0922-21.9085,19.311-8.764,4.2204-18.5582,6.3298-29.3762,6.3298-17.0938,0-30.6187-4.8686-40.5713-14.6057s-14.929-22.5012-14.929-38.2987c0-18.6073,6.7608-32.8326,20.2857-42.6823,13.5217-9.8433,32.8311-14.7673,57.9346-14.7673h21.4236v-9.7371c0-11.0351-2.5452-18.769-7.6293-23.2065-5.0841-4.4327-13.2554-6.6546-24.5044-6.6546-12.5517,0-27.6994,3.0333-45.4399,9.0889l-9.7371-28.2383c21.4236-8.2204,42.1942-12.333,62.3182-12.333,43.9248,0,65.8872,19.6913,65.8872,59.0709v72.0553c0,6.7101,1.0238,11.6341,3.0841,14.7673ZM2021.8818,625.4001v-34.7297h-17.2016c-26.8341,0-40.248,9.9558-40.248,29.8611,0,8.2252,2.0539,14.6057,6.1681,19.1493,4.1078,4.5437,10.1682,6.8163,18.1747,6.8163,14.0637,0,25.0972-7.0302,33.1068-21.0971Z"/>
      <path class="cls-2" d="M2240.4755,509.0413c8.5453,9.1999,12.8212,22.0194,12.8212,38.4619v124.3098h-41.5476v-117.8184c0-10.1682-1.7845-17.3094-5.3535-21.422-3.5722-4.1078-8.8211-6.1665-15.7436-6.1665-7.138,0-13.5787,2.2203-19.3094,6.6531-5.737,4.4375-11.3093,10.8734-16.7166,19.3126v119.4413h-41.5444v-171.6974h36.0261l3.2457,22.395c14.0637-18.1763,31.484-27.2636,52.2577-27.2636,15.36,0,27.3127,4.5991,35.8644,13.7942Z"/>
      <path class="cls-2" d="M2400,663.6988c-6.0603,4.3313-12.8212,7.577-20.2857,9.7371-7.4645,2.1601-15.0938,3.2457-22.8816,3.2457-16.8783-.2187-29.6995-5.0302-38.4635-14.444-8.7609-9.4122-13.1445-23.3127-13.1445-41.706v-90.5564h-26.9387v-29.8595h26.9387v-37.9754l41.5444-4.8686v42.8439h39.9247l-4.222,29.8595h-35.7027v89.5818c0,8.4391,1.4612,14.4995,4.3836,18.1763,2.9192,3.6815,7.5152,5.5183,13.7942,5.5183,6.2727,0,13.0874-2.0539,20.4473-6.1681l14.6057,26.6154Z"/>
    </g>
  </g>
</svg>