<?xml version="1.0" encoding="UTF-8"?>
<svg id="Flag" xmlns="http://www.w3.org/2000/svg" viewBox="0 0 1400 797.2988">
  <defs>
    <style>
      .cls-1 {
        fill: #1d1a14;
      }

      .cls-1, .cls-2 {
        stroke-width: 0px;
      }

      .cls-2 {
        fill: #959087;
      }
    </style>
  </defs>
  <g>
    <path class="cls-1" d="M96.3465,587.5377l36.5948-27.4475c36.6001-26.9131,70.5127-57.0535,70.5127-99.5737,0-39.2877-24.7598-66.2008-65.6665-66.2008-45.7475,0-73.2003,31.754-73.2003,87.7334v5.3805H4.3065v-8.0734c0-81.8133,53.8209-132.9466,133.481-132.9466,75.3535,0,124.3336,46.2924,124.3336,114.1069,0,62.9736-41.9859,102.801-104.4199,148.5538l-25.8338,18.8397c-36.0605,26.3735-51.6677,39.2877-55.9742,51.128h189.4551v53.2866H0c1.0793-66.7405,35.5261-100.1134,96.3465-144.7869Z"/>
    <path class="cls-1" d="M510.7935,409.3832h-209.3741v-53.8209h262.6607v57.0535c-72.1263,72.121-128.6401,179.7681-134.5602,319.7089h-66.2008c7.5338-125.4076,60.2807-253.508,147.4745-322.9414Z"/>
    <path class="cls-1" d="M595.8499,543.4038c0-123.2543,54.9002-196.9942,142.6336-196.9942,86.6542,0,142.094,72.6659,142.094,198.6078,0,123.7939-52.7469,195.9202-142.094,195.9202-90.9607,0-142.6336-73.2003-142.6336-197.5338ZM738.4836,693.0316c51.6677,0,83.4269-46.8268,83.4269-147.4745,0-103.8803-31.7593-151.2414-83.4269-151.2414-53.2866,0-83.9666,47.9008-83.9666,151.781,0,100.1081,32.8332,146.9349,83.9666,146.9349Z"/>
    <path class="cls-1" d="M931.7215,543.4038c0-123.2543,54.9002-196.9942,142.6336-196.9942,86.6542,0,142.094,72.6659,142.094,198.6078,0,123.7939-52.7469,195.9202-142.094,195.9202-90.9607,0-142.6336-73.2003-142.6336-197.5338ZM1074.3551,693.0316c51.6677,0,83.4269-46.8268,83.4269-147.4745,0-103.8803-31.7593-151.2414-83.4269-151.2414-53.2866,0-83.9666,47.9008-83.9666,151.781,0,100.1081,32.8332,146.9349,83.9666,146.9349Z"/>
    <path class="cls-1" d="M1343.4862,436.836c-17.2261,29.0611-48.9801,50.5937-88.2731,52.2073v-55.9742c46.2924-5.9201,85.0405-36.0658,95.8068-77.5068h48.9801v376.7623h-57.5931v-263.7347c0-10.7663.5396-20.9877,1.0793-31.754Z"/>
  </g>
  <g>
    <path class="cls-2" d="M529.4094,60h29.1249v30.0009h-29.1249v-30.0009ZM531.7388,116.5063h25.0491v140.3912h-25.0491V116.5063Z"/>
    <path class="cls-2" d="M588.8225,210.5849h24.4661c.8732,18.934,13.6893,31.1671,36.116,31.1671,19.2241,0,32.3304-8.7375,32.3304-23.0098,0-11.0697-7.5713-18.351-24.4661-21.5536l-21.2635-4.0786c-26.2124-4.9518-42.8142-18.351-42.8142-39.9045,0-23.883,22.7169-41.3579,54.467-41.3579,33.7866,0,54.174,16.6018,55.9232,45.1465h-24.759c-2.0393-16.8947-13.9794-25.3421-32.9134-25.3421-16.8919,0-27.6687,8.1572-27.6687,20.0973,0,11.3599,8.1544,16.8947,23.883,19.8072l21.8437,4.0786c25.3421,4.6588,42.5269,17.1848,42.5269,40.4848,0,25.0491-21.5536,45.1465-57.3795,45.1465-37.8652,0-59.7118-20.6804-60.292-50.6813Z"/>
    <path class="cls-2" d="M731.5289,186.4118c0-43.6902,28.5447-74.5643,69.0323-74.5643,40.1946,0,69.0294,30.8741,69.0294,74.5643,0,44.8535-28.8348,74.8544-69.0294,74.8544-40.4876,0-69.0323-30.0009-69.0323-74.8544ZM800.5612,241.7519c26.7955,0,43.1071-22.4267,43.1071-55.3402s-16.8947-54.7599-43.1071-54.7599-43.1071,21.8465-43.1071,54.7599,16.3088,55.3402,43.1071,55.3402Z"/>
  </g>
</svg>