<?xml version="1.0" encoding="utf-8"?>
<!-- Generator: Adobe Illustrator 28.1.0, SVG Export Plug-In . SVG Version: 6.00 Build 0)  -->
<svg version="1.1" id="Laag_1" xmlns="http://www.w3.org/2000/svg" xmlns:xlink="http://www.w3.org/1999/xlink" x="0px" y="0px"
	 viewBox="0 0 6000 1200" style="enable-background:new 0 0 6000 1200;" xml:space="preserve">
<style type="text/css">
	.st0{opacity:0.6;}
	.st1{fill:#F1EEE9;}
	.st2{opacity:0.7;}
	.st3{opacity:0.8;}
	.st4{opacity:0.9;}
</style>
<g class="st0">
	<path class="st1" d="M9.2,975.7c-8.9,8.9-8.9,23.1,0,31.9l68.4,68.4c8.9,8.9,23.1,8.9,31.9,0l68.4-68.4c8.9-8.9,8.9-23.1,0-31.9
		l-68.4-68.4c-8.9-8.9-23.1-8.9-31.9,0L9.2,975.7z"/>
	<path class="st1" d="M221.3,1018.5c-8.9-8.9-23.1-8.9-31.9,0l-68.4,68.4c-8.9,8.9-8.9,23.1,0,31.9l68.4,68.4
		c8.9,8.9,23.1,8.9,31.9,0l68.4-68.4c8.9-8.9,8.9-23.1,0-31.9L221.3,1018.5z"/>
	<g>
		<path class="st1" d="M401.2,1007.6c8.9-8.9,8.9-23.1,0-31.9l-68.4-68.4c-8.9-8.9-23.1-8.9-31.9,0l-68.4,68.4
			c-8.9,8.9-8.9,23.1,0,31.9l68.4,68.4c8.9,8.9,23.1,8.9,31.9,0L401.2,1007.6z"/>
	</g>
	<path class="st1" d="M847.2,1007.6c8.9-8.9,8.9-23.1,0-31.9l-68.4-68.4c-8.9-8.9-23.1-8.9-31.9,0l-68.4,68.4
		c-8.9,8.9-8.9,23.1,0,31.9l68.4,68.4c8.9,8.9,23.1,8.9,31.9,0L847.2,1007.6z"/>
	<path class="st1" d="M412.4,1187.8c8.9,8.9,23.1,8.9,31.9,0l68.4-68.4c8.9-8.9,8.9-23.1,0-31.9l-68.4-68.4
		c-8.9-8.9-23.1-8.9-31.9,0l-68.4,68.4c-8.9,8.9-8.9,23.1,0,31.9L412.4,1187.8z"/>
	<path class="st1" d="M455.2,975.7c-8.9,8.9-8.9,23.1,0,31.9l68.4,68.4c8.9,8.9,23.1,8.9,31.9,0l68.4-68.4c8.9-8.9,8.9-23.1,0-31.9
		l-68.4-68.4c-8.9-8.9-23.1-8.9-31.9,0L455.2,975.7z"/>
	<path class="st1" d="M667.3,1018.8c-8.9-8.9-23.1-8.9-31.9,0l-68.4,68.4c-8.9,8.9-8.9,23.1,0,31.9l68.4,68.4
		c8.9,8.9,23.1,8.9,31.9,0l68.4-68.4c8.9-8.9,8.9-23.1,0-31.9L667.3,1018.8z"/>
	<path class="st1" d="M1739.2,1007.6c8.9-8.9,8.9-23.1,0-31.9l-68.4-68.4c-8.9-8.9-23.1-8.9-31.9,0l-68.4,68.4
		c-8.9,8.9-8.9,23.1,0,31.9l68.4,68.4c8.9,8.9,23.1,8.9,31.9,0L1739.2,1007.6z"/>
	<path class="st1" d="M1304.3,1187.8c8.9,8.9,23.1,8.9,31.9,0l68.4-68.4c8.9-8.9,8.9-23.1,0-31.9l-68.4-68.4
		c-8.9-8.9-23.1-8.9-31.9,0l-68.4,68.4c-8.9,8.9-8.9,23.1,0,31.9L1304.3,1187.8z"/>
	<path class="st1" d="M1347.2,975.7c-8.9,8.9-8.9,23.1,0,31.9l68.4,68.4c8.9,8.9,23.1,8.9,31.9,0l68.4-68.4c8.9-8.9,8.9-23.1,0-31.9
		l-68.4-68.4c-8.9-8.9-23.1-8.9-31.9,0L1347.2,975.7z"/>
	<path class="st1" d="M1559.3,1018.8c-8.9-8.9-23.1-8.9-31.9,0l-68.4,68.4c-8.9,8.9-8.9,23.1,0,31.9l68.4,68.4
		c8.9,8.9,23.1,8.9,31.9,0l68.4-68.4c8.9-8.9,8.9-23.1,0-31.9L1559.3,1018.8z"/>
	<path class="st1" d="M1293.2,1007.6c8.9-8.9,8.9-23.1,0-31.9l-68.4-68.4c-8.9-8.9-23.1-8.9-31.9,0l-68.4,68.4
		c-8.9,8.9-8.9,23.1,0,31.9l68.4,68.4c8.9,8.9,23.1,8.9,31.9,0L1293.2,1007.6z"/>
	<path class="st1" d="M901.2,975.7c-8.9,8.9-8.9,23.1,0,31.9l68.4,68.4c8.9,8.9,23.1,8.9,31.9,0l68.4-68.4c8.9-8.9,8.9-23.1,0-31.9
		l-68.4-68.4c-8.9-8.9-23.1-8.9-31.9,0L901.2,975.7z"/>
	<path class="st1" d="M1113.3,1018.8c-8.9-8.9-23.1-8.9-31.9,0l-68.4,68.4c-8.9,8.9-8.9,23.1,0,31.9l68.4,68.4
		c8.9,8.9,23.1,8.9,31.9,0l68.4-68.4c8.9-8.9,8.9-23.1,0-31.9L1113.3,1018.8z"/>
	<path class="st1" d="M858.3,1187.8c8.9,8.9,23.1,8.9,31.9,0l68.4-68.4c8.9-8.9,8.9-23.1,0-31.9l-68.4-68.4
		c-8.9-8.9-23.1-8.9-31.9,0l-68.4,68.4c-8.9,8.9-8.9,23.1,0,31.9L858.3,1187.8z"/>
	<path class="st1" d="M1797.5,980c-8.9,8.9-8.9,23.1,0,31.9l68.4,68.4c8.9,8.9,23.1,8.9,31.9,0l68.4-68.4c8.9-8.9,8.9-23.1,0-31.9
		l-68.4-68.4c-8.9-8.9-23.1-8.9-31.9,0L1797.5,980z"/>
	<path class="st1" d="M2009.6,1023.1c-8.9-8.9-23.1-8.9-31.9,0l-68.4,68.4c-8.9,8.9-8.9,23.1,0,31.9l68.4,68.4
		c8.9,8.9,23.1,8.9,31.9,0l68.4-68.4c8.9-8.9,8.9-23.1,0-31.9L2009.6,1023.1z"/>
	<path class="st1" d="M1754.6,1192.1c8.9,8.9,23.1,8.9,31.9,0l68.4-68.4c8.9-8.9,8.9-23.1,0-31.9l-68.4-68.4
		c-8.9-8.9-23.1-8.9-31.9,0l-68.4,68.4c-8.9,8.9-8.9,23.1,0,31.9L1754.6,1192.1z"/>
	<g>
		<path class="st1" d="M2191.5,1009.6c8.9-8.9,8.9-23.1,0-31.9l-68.4-68.4c-8.9-8.9-23.1-8.9-31.9,0l-68.4,68.4
			c-8.9,8.9-8.9,23.1,0,31.9l68.4,68.4c8.9,8.9,23.1,8.9,31.9,0L2191.5,1009.6z"/>
	</g>
	<path class="st1" d="M2637.5,1009.6c8.9-8.9,8.9-23.1,0-31.9l-68.4-68.4c-8.9-8.9-23.1-8.9-31.9,0l-68.4,68.4
		c-8.9,8.9-8.9,23.1,0,31.9l68.4,68.4c8.9,8.9,23.1,8.9,31.9,0L2637.5,1009.6z"/>
	<path class="st1" d="M2202.7,1189.8c8.9,8.9,23.1,8.9,31.9,0l68.4-68.4c8.9-8.9,8.9-23.1,0-31.9l-68.4-68.4
		c-8.9-8.9-23.1-8.9-31.9,0l-68.4,68.4c-8.9,8.9-8.9,23.1,0,31.9L2202.7,1189.8z"/>
	<path class="st1" d="M2245.5,977.7c-8.9,8.9-8.9,23.1,0,31.9l68.4,68.4c8.9,8.9,23.1,8.9,31.9,0l68.4-68.4c8.9-8.9,8.9-23.1,0-31.9
		l-68.4-68.4c-8.9-8.9-23.1-8.9-31.9,0L2245.5,977.7z"/>
	<path class="st1" d="M2457.6,1020.8c-8.9-8.9-23.1-8.9-31.9,0l-68.4,68.4c-8.9,8.9-8.9,23.1,0,31.9l68.4,68.4
		c8.9,8.9,23.1,8.9,31.9,0l68.4-68.4c8.9-8.9,8.9-23.1,0-31.9L2457.6,1020.8z"/>
	<path class="st1" d="M3529.5,1009.6c8.9-8.9,8.9-23.1,0-31.9l-68.4-68.4c-8.9-8.9-23.1-8.9-31.9,0l-68.4,68.4
		c-8.9,8.9-8.9,23.1,0,31.9l68.4,68.4c8.9,8.9,23.1,8.9,31.9,0L3529.5,1009.6z"/>
	<path class="st1" d="M3094.6,1189.8c8.9,8.9,23.1,8.9,31.9,0l68.4-68.4c8.9-8.9,8.9-23.1,0-31.9l-68.4-68.4
		c-8.9-8.9-23.1-8.9-31.9,0l-68.4,68.4c-8.9,8.9-8.9,23.1,0,31.9L3094.6,1189.8z"/>
	<path class="st1" d="M3137.5,977.7c-8.9,8.9-8.9,23.1,0,31.9l68.4,68.4c8.9,8.9,23.1,8.9,31.9,0l68.4-68.4c8.9-8.9,8.9-23.1,0-31.9
		l-68.4-68.4c-8.9-8.9-23.1-8.9-31.9,0L3137.5,977.7z"/>
	<path class="st1" d="M3349.6,1020.8c-8.9-8.9-23.1-8.9-31.9,0l-68.4,68.4c-8.9,8.9-8.9,23.1,0,31.9l68.4,68.4
		c8.9,8.9,23.1,8.9,31.9,0l68.4-68.4c8.9-8.9,8.9-23.1,0-31.9L3349.6,1020.8z"/>
	<path class="st1" d="M3083.5,1009.6c8.9-8.9,8.9-23.1,0-31.9l-68.4-68.4c-8.9-8.9-23.1-8.9-31.9,0l-68.4,68.4
		c-8.9,8.9-8.9,23.1,0,31.9l68.4,68.4c8.9,8.9,23.1,8.9,31.9,0L3083.5,1009.6z"/>
	<path class="st1" d="M2691.5,977.7c-8.9,8.9-8.9,23.1,0,31.9l68.4,68.4c8.9,8.9,23.1,8.9,31.9,0l68.4-68.4c8.9-8.9,8.9-23.1,0-31.9
		l-68.4-68.4c-8.9-8.9-23.1-8.9-31.9,0L2691.5,977.7z"/>
	<path class="st1" d="M2903.6,1020.8c-8.9-8.9-23.1-8.9-31.9,0l-68.4,68.4c-8.9,8.9-8.9,23.1,0,31.9l68.4,68.4
		c8.9,8.9,23.1,8.9,31.9,0l68.4-68.4c8.9-8.9,8.9-23.1,0-31.9L2903.6,1020.8z"/>
	<path class="st1" d="M2648.7,1189.8c8.9,8.9,23.1,8.9,31.9,0l68.4-68.4c8.9-8.9,8.9-23.1,0-31.9l-68.4-68.4
		c-8.9-8.9-23.1-8.9-31.9,0l-68.4,68.4c-8.9,8.9-8.9,23.1,0,31.9L2648.7,1189.8z"/>
	<g>
		<path class="st1" d="M3981.8,1009.6c8.9-8.9,8.9-23.1,0-31.9l-68.4-68.4c-8.9-8.9-23.1-8.9-31.9,0l-68.4,68.4
			c-8.9,8.9-8.9,23.1,0,31.9l68.4,68.4c8.9,8.9,23.1,8.9,31.9,0L3981.8,1009.6z"/>
	</g>
	<path class="st1" d="M3993,1189.8c8.9,8.9,23.1,8.9,31.9,0l68.4-68.4c8.9-8.9,8.9-23.1,0-31.9l-68.4-68.4c-8.9-8.9-23.1-8.9-31.9,0
		l-68.4,68.4c-8.9,8.9-8.9,23.1,0,31.9L3993,1189.8z"/>
	<path class="st1" d="M4035.8,977.7c-8.9,8.9-8.9,23.1,0,31.9l68.4,68.4c8.9,8.9,23.1,8.9,31.9,0l68.4-68.4c8.9-8.9,8.9-23.1,0-31.9
		l-68.4-68.4c-8.9-8.9-23.1-8.9-31.9,0L4035.8,977.7z"/>
	<path class="st1" d="M3586,981.8c-8.9,8.9-8.9,23.1,0,31.9l68.4,68.4c8.9,8.9,23.1,8.9,31.9,0l68.4-68.4c8.9-8.9,8.9-23.1,0-31.9
		l-68.4-68.4c-8.9-8.9-23.1-8.9-31.9,0L3586,981.8z"/>
	<path class="st1" d="M3798.1,1024.8c-8.9-8.9-23.1-8.9-31.9,0l-68.4,68.4c-8.9,8.9-8.9,23.1,0,31.9l68.4,68.4
		c8.9,8.9,23.1,8.9,31.9,0l68.4-68.4c8.9-8.9,8.9-23.1,0-31.9L3798.1,1024.8z"/>
	<path class="st1" d="M3543.2,1193.9c8.9,8.9,23.1,8.9,31.9,0l68.4-68.4c8.9-8.9,8.9-23.1,0-31.9l-68.4-68.4
		c-8.9-8.9-23.1-8.9-31.9,0l-68.4,68.4c-8.9,8.9-8.9,23.1,0,31.9L3543.2,1193.9z"/>
	<path class="st1" d="M4426,1009.6c8.9-8.9,8.9-23.1,0-31.9l-68.4-68.4c-8.9-8.9-23.1-8.9-31.9,0l-68.4,68.4
		c-8.9,8.9-8.9,23.1,0,31.9l68.4,68.4c8.9,8.9,23.1,8.9,31.9,0L4426,1009.6z"/>
	<path class="st1" d="M4246.1,1020.8c-8.9-8.9-23.1-8.9-31.9,0l-68.4,68.4c-8.9,8.9-8.9,23.1,0,31.9l68.4,68.4
		c8.9,8.9,23.1,8.9,31.9,0l68.4-68.4c8.9-8.9,8.9-23.1,0-31.9L4246.1,1020.8z"/>
	<path class="st1" d="M5318,1009.6c8.9-8.9,8.9-23.1,0-31.9l-68.4-68.4c-8.9-8.9-23.1-8.9-31.9,0l-68.4,68.4
		c-8.9,8.9-8.9,23.1,0,31.9l68.4,68.4c8.9,8.9,23.1,8.9,31.9,0L5318,1009.6z"/>
	<path class="st1" d="M4883.2,1189.8c8.9,8.9,23.1,8.9,31.9,0l68.4-68.4c8.9-8.9,8.9-23.1,0-31.9l-68.4-68.4
		c-8.9-8.9-23.1-8.9-31.9,0l-68.4,68.4c-8.9,8.9-8.9,23.1,0,31.9L4883.2,1189.8z"/>
	<path class="st1" d="M4926,977.7c-8.9,8.9-8.9,23.1,0,31.9l68.4,68.4c8.9,8.9,23.1,8.9,31.9,0l68.4-68.4c8.9-8.9,8.9-23.1,0-31.9
		l-68.4-68.4c-8.9-8.9-23.1-8.9-31.9,0L4926,977.7z"/>
	<path class="st1" d="M5138.1,1020.8c-8.9-8.9-23.1-8.9-31.9,0l-68.4,68.4c-8.9,8.9-8.9,23.1,0,31.9l68.4,68.4
		c8.9,8.9,23.1,8.9,31.9,0l68.4-68.4c8.9-8.9,8.9-23.1,0-31.9L5138.1,1020.8z"/>
	<path class="st1" d="M4872,1009.6c8.9-8.9,8.9-23.1,0-31.9l-68.4-68.4c-8.9-8.9-23.1-8.9-31.9,0l-68.4,68.4
		c-8.9,8.9-8.9,23.1,0,31.9l68.4,68.4c8.9,8.9,23.1,8.9,31.9,0L4872,1009.6z"/>
	<path class="st1" d="M4480,977.7c-8.9,8.9-8.9,23.1,0,31.9l68.4,68.4c8.9,8.9,23.1,8.9,31.9,0l68.4-68.4c8.9-8.9,8.9-23.1,0-31.9
		l-68.4-68.4c-8.9-8.9-23.1-8.9-31.9,0L4480,977.7z"/>
	<path class="st1" d="M4692.1,1020.8c-8.9-8.9-23.1-8.9-31.9,0l-68.4,68.4c-8.9,8.9-8.9,23.1,0,31.9l68.4,68.4
		c8.9,8.9,23.1,8.9,31.9,0l68.4-68.4c8.9-8.9,8.9-23.1,0-31.9L4692.1,1020.8z"/>
	<path class="st1" d="M4437.2,1189.8c8.9,8.9,23.1,8.9,31.9,0l68.4-68.4c8.9-8.9,8.9-23.1,0-31.9l-68.4-68.4
		c-8.9-8.9-23.1-8.9-31.9,0l-68.4,68.4c-8.9,8.9-8.9,23.1,0,31.9L4437.2,1189.8z"/>
	<g>
		<path class="st1" d="M5770.4,1009.6c8.9-8.9,8.9-23.1,0-31.9l-68.4-68.4c-8.9-8.9-23.1-8.9-31.9,0l-68.4,68.4
			c-8.9,8.9-8.9,23.1,0,31.9l68.4,68.4c8.9,8.9,23.1,8.9,31.9,0L5770.4,1009.6z"/>
	</g>
	<path class="st1" d="M5781.5,1189.8c8.9,8.9,23.1,8.9,31.9,0l68.4-68.4c8.9-8.9,8.9-23.1,0-31.9l-68.4-68.4
		c-8.9-8.9-23.1-8.9-31.9,0l-68.4,68.4c-8.9,8.9-8.9,23.1,0,31.9L5781.5,1189.8z"/>
	<path class="st1" d="M5824.3,977.7c-8.9,8.9-8.9,23.1,0,31.9l68.4,68.4c8.9,8.9,23.1,8.9,31.9,0l68.4-68.4c8.9-8.9,8.9-23.1,0-31.9
		l-68.4-68.4c-8.9-8.9-23.1-8.9-31.9,0L5824.3,977.7z"/>
	<path class="st1" d="M5374.5,981.8c-8.9,8.9-8.9,23.1,0,31.9l68.4,68.4c8.9,8.9,23.1,8.9,31.9,0l68.4-68.4c8.9-8.9,8.9-23.1,0-31.9
		l-68.4-68.4c-8.9-8.9-23.1-8.9-31.9,0L5374.5,981.8z"/>
	<path class="st1" d="M5586.6,1024.8c-8.9-8.9-23.1-8.9-31.9,0l-68.4,68.4c-8.9,8.9-8.9,23.1,0,31.9l68.4,68.4
		c8.9,8.9,23.1,8.9,31.9,0l68.4-68.4c8.9-8.9,8.9-23.1,0-31.9L5586.6,1024.8z"/>
	<path class="st1" d="M5331.7,1193.9c8.9,8.9,23.1,8.9,31.9,0l68.4-68.4c8.9-8.9,8.9-23.1,0-31.9l-68.4-68.4
		c-8.9-8.9-23.1-8.9-31.9,0l-68.4,68.4c-8.9,8.9-8.9,23.1,0,31.9L5331.7,1193.9z"/>
</g>
<g class="st2">
	<path class="st1" d="M175.7,782.1c8.9-8.9,8.9-23.1,0-31.9l-68.4-68.4c-8.9-8.9-23.1-8.9-31.9,0L6.9,750.1
		c-8.9,8.9-8.9,23.1,0,31.9l68.4,68.4c8.9,8.9,23.1,8.9,31.9,0L175.7,782.1z"/>
	<path class="st1" d="M189.4,964.8c8.9,8.9,23.1,8.9,31.9,0l68.4-68.4c8.9-8.9,8.9-23.1,0-31.9L221.3,796c-8.9-8.9-23.1-8.9-31.9,0
		l-68.4,68.4c-8.9,8.9-8.9,23.1,0,31.9L189.4,964.8z"/>
	<path class="st1" d="M232.2,752.7c-8.9,8.9-8.9,23.1,0,31.9l68.4,68.4c8.9,8.9,23.1,8.9,31.9,0l68.4-68.4c8.9-8.9,8.9-23.1,0-31.9
		l-68.4-68.4c-8.9-8.9-23.1-8.9-31.9,0L232.2,752.7z"/>
	<path class="st1" d="M444.3,795.8c-8.9-8.9-23.1-8.9-31.9,0l-68.4,68.4c-8.9,8.9-8.9,23.1,0,31.9l68.4,68.4
		c8.9,8.9,23.1,8.9,31.9,0l68.4-68.4c8.9-8.9,8.9-23.1,0-31.9L444.3,795.8z"/>
	<path class="st1" d="M624.2,784.6c8.9-8.9,8.9-23.1,0-31.9l-68.4-68.4c-8.9-8.9-23.1-8.9-31.9,0l-68.4,68.4
		c-8.9,8.9-8.9,23.1,0,31.9l68.4,68.4c8.9,8.9,23.1,8.9,31.9,0L624.2,784.6z"/>
	<path class="st1" d="M890.3,795.8c-8.9-8.9-23.1-8.9-31.9,0l-68.4,68.4c-8.9,8.9-8.9,23.1,0,31.9l68.4,68.4
		c8.9,8.9,23.1,8.9,31.9,0l68.4-68.4c8.9-8.9,8.9-23.1,0-31.9L890.3,795.8z"/>
	<path class="st1" d="M635.4,964.8c8.9,8.9,23.1,8.9,31.9,0l68.4-68.4c8.9-8.9,8.9-23.1,0-31.9L667.3,796c-8.9-8.9-23.1-8.9-31.9,0
		l-68.4,68.4c-8.9,8.9-8.9,23.1,0,31.9L635.4,964.8z"/>
	<path class="st1" d="M678.2,752.7c-8.9,8.9-8.9,23.1,0,31.9l68.4,68.4c8.9,8.9,23.1,8.9,31.9,0l68.4-68.4c8.9-8.9,8.9-23.1,0-31.9
		l-68.4-68.4c-8.9-8.9-23.1-8.9-31.9,0L678.2,752.7z"/>
	<path class="st1" d="M1070.2,784.6c8.9-8.9,8.9-23.1,0-31.9l-68.4-68.4c-8.9-8.9-23.1-8.9-31.9,0l-68.4,68.4
		c-8.9,8.9-8.9,23.1,0,31.9l68.4,68.4c8.9,8.9,23.1,8.9,31.9,0L1070.2,784.6z"/>
	<path class="st1" d="M1782.3,795.8c-8.9-8.9-23.1-8.9-31.9,0l-68.4,68.4c-8.9,8.9-8.9,23.1,0,31.9l68.4,68.4
		c8.9,8.9,23.1,8.9,31.9,0l68.4-68.4c8.9-8.9,8.9-23.1,0-31.9L1782.3,795.8z"/>
	<path class="st1" d="M1527.3,964.8c8.9,8.9,23.1,8.9,31.9,0l68.4-68.4c8.9-8.9,8.9-23.1,0-31.9l-68.4-68.4
		c-8.9-8.9-23.1-8.9-31.9,0l-68.4,68.4c-8.9,8.9-8.9,23.1,0,31.9L1527.3,964.8z"/>
	<path class="st1" d="M1570.2,752.7c-8.9,8.9-8.9,23.1,0,31.9l68.4,68.4c8.9,8.9,23.1,8.9,31.9,0l68.4-68.4c8.9-8.9,8.9-23.1,0-31.9
		l-68.4-68.4c-8.9-8.9-23.1-8.9-31.9,0L1570.2,752.7z"/>
	<path class="st1" d="M1081.3,964.8c8.9,8.9,23.1,8.9,31.9,0l68.4-68.4c8.9-8.9,8.9-23.1,0-31.9l-68.4-68.4
		c-8.9-8.9-23.1-8.9-31.9,0l-68.4,68.4c-8.9,8.9-8.9,23.1,0,31.9L1081.3,964.8z"/>
	<path class="st1" d="M1124.2,752.7c-8.9,8.9-8.9,23.1,0,31.9l68.4,68.4c8.9,8.9,23.1,8.9,31.9,0l68.4-68.4c8.9-8.9,8.9-23.1,0-31.9
		l-68.4-68.4c-8.9-8.9-23.1-8.9-31.9,0L1124.2,752.7z"/>
	<path class="st1" d="M1336.3,795.8c-8.9-8.9-23.1-8.9-31.9,0l-68.4,68.4c-8.9,8.9-8.9,23.1,0,31.9l68.4,68.4
		c8.9,8.9,23.1,8.9,31.9,0l68.4-68.4c8.9-8.9,8.9-23.1,0-31.9L1336.3,795.8z"/>
	<path class="st1" d="M1516.2,784.6c8.9-8.9,8.9-23.1,0-31.9l-68.4-68.4c-8.9-8.9-23.1-8.9-31.9,0l-68.4,68.4
		c-8.9,8.9-8.9,23.1,0,31.9l68.4,68.4c8.9,8.9,23.1,8.9,31.9,0L1516.2,784.6z"/>
	<path class="st1" d="M3753.8,785.6c8.9-8.9,8.9-23.1,0-31.9l-68.4-68.4c-8.9-8.9-23.1-8.9-31.9,0l-68.4,68.4
		c-8.9,8.9-8.9,23.1,0,31.9l68.4,68.4c8.9,8.9,23.1,8.9,31.9,0L3753.8,785.6z"/>
	<path class="st1" d="M1979.7,966.8c8.9,8.9,23.1,8.9,31.9,0l68.4-68.4c8.9-8.9,8.9-23.1,0-31.9l-68.4-68.4
		c-8.9-8.9-23.1-8.9-31.9,0l-68.4,68.4c-8.9,8.9-8.9,23.1,0,31.9L1979.7,966.8z"/>
	<path class="st1" d="M2022.5,754.7c-8.9,8.9-8.9,23.1,0,31.9l68.4,68.4c8.9,8.9,23.1,8.9,31.9,0l68.4-68.4c8.9-8.9,8.9-23.1,0-31.9
		l-68.4-68.4c-8.9-8.9-23.1-8.9-31.9,0L2022.5,754.7z"/>
	<path class="st1" d="M2234.6,797.8c-8.9-8.9-23.1-8.9-31.9,0l-68.4,68.4c-8.9,8.9-8.9,23.1,0,31.9l68.4,68.4
		c8.9,8.9,23.1,8.9,31.9,0l68.4-68.4c8.9-8.9,8.9-23.1,0-31.9L2234.6,797.8z"/>
	<path class="st1" d="M2414.5,786.6c8.9-8.9,8.9-23.1,0-31.9l-68.4-68.4c-8.9-8.9-23.1-8.9-31.9,0l-68.4,68.4
		c-8.9,8.9-8.9,23.1,0,31.9l68.4,68.4c8.9,8.9,23.1,8.9,31.9,0L2414.5,786.6z"/>
	<path class="st1" d="M2680.6,797.8c-8.9-8.9-23.1-8.9-31.9,0l-68.4,68.4c-8.9,8.9-8.9,23.1,0,31.9l68.4,68.4
		c8.9,8.9,23.1,8.9,31.9,0l68.4-68.4c8.9-8.9,8.9-23.1,0-31.9L2680.6,797.8z"/>
	<path class="st1" d="M2425.7,966.8c8.9,8.9,23.1,8.9,31.9,0l68.4-68.4c8.9-8.9,8.9-23.1,0-31.9l-68.4-68.4
		c-8.9-8.9-23.1-8.9-31.9,0l-68.4,68.4c-8.9,8.9-8.9,23.1,0,31.9L2425.7,966.8z"/>
	<path class="st1" d="M2468.5,754.7c-8.9,8.9-8.9,23.1,0,31.9l68.4,68.4c8.9,8.9,23.1,8.9,31.9,0l68.4-68.4c8.9-8.9,8.9-23.1,0-31.9
		l-68.4-68.4c-8.9-8.9-23.1-8.9-31.9,0L2468.5,754.7z"/>
	<path class="st1" d="M2860.5,786.6c8.9-8.9,8.9-23.1,0-31.9l-68.4-68.4c-8.9-8.9-23.1-8.9-31.9,0l-68.4,68.4
		c-8.9,8.9-8.9,23.1,0,31.9l68.4,68.4c8.9,8.9,23.1,8.9,31.9,0L2860.5,786.6z"/>
	<path class="st1" d="M3572.6,797.8c-8.9-8.9-23.1-8.9-31.9,0l-68.4,68.4c-8.9,8.9-8.9,23.1,0,31.9l68.4,68.4
		c8.9,8.9,23.1,8.9,31.9,0l68.4-68.4c8.9-8.9,8.9-23.1,0-31.9L3572.6,797.8z"/>
	<path class="st1" d="M3317.6,966.8c8.9,8.9,23.1,8.9,31.9,0l68.4-68.4c8.9-8.9,8.9-23.1,0-31.9l-68.4-68.4
		c-8.9-8.9-23.1-8.9-31.9,0l-68.4,68.4c-8.9,8.9-8.9,23.1,0,31.9L3317.6,966.8z"/>
	<path class="st1" d="M3360.5,754.7c-8.9,8.9-8.9,23.1,0,31.9l68.4,68.4c8.9,8.9,23.1,8.9,31.9,0l68.4-68.4c8.9-8.9,8.9-23.1,0-31.9
		l-68.4-68.4c-8.9-8.9-23.1-8.9-31.9,0L3360.5,754.7z"/>
	<path class="st1" d="M2871.7,966.8c8.9,8.9,23.1,8.9,31.9,0l68.4-68.4c8.9-8.9,8.9-23.1,0-31.9l-68.4-68.4
		c-8.9-8.9-23.1-8.9-31.9,0l-68.4,68.4c-8.9,8.9-8.9,23.1,0,31.9L2871.7,966.8z"/>
	<path class="st1" d="M2914.5,754.7c-8.9,8.9-8.9,23.1,0,31.9l68.4,68.4c8.9,8.9,23.1,8.9,31.9,0l68.4-68.4c8.9-8.9,8.9-23.1,0-31.9
		l-68.4-68.4c-8.9-8.9-23.1-8.9-31.9,0L2914.5,754.7z"/>
	<path class="st1" d="M3126.6,797.8c-8.9-8.9-23.1-8.9-31.9,0l-68.4,68.4c-8.9,8.9-8.9,23.1,0,31.9l68.4,68.4
		c8.9,8.9,23.1,8.9,31.9,0l68.4-68.4c8.9-8.9,8.9-23.1,0-31.9L3126.6,797.8z"/>
	<path class="st1" d="M3306.5,786.6c8.9-8.9,8.9-23.1,0-31.9l-68.4-68.4c-8.9-8.9-23.1-8.9-31.9,0l-68.4,68.4
		c-8.9,8.9-8.9,23.1,0,31.9l68.4,68.4c8.9,8.9,23.1,8.9,31.9,0L3306.5,786.6z"/>
	<path class="st1" d="M3770,966.8c8.9,8.9,23.1,8.9,31.9,0l68.4-68.4c8.9-8.9,8.9-23.1,0-31.9l-68.4-68.4c-8.9-8.9-23.1-8.9-31.9,0
		l-68.4,68.4c-8.9,8.9-8.9,23.1,0,31.9L3770,966.8z"/>
	<path class="st1" d="M3812.8,754.7c-8.9,8.9-8.9,23.1,0,31.9l68.4,68.4c8.9,8.9,23.1,8.9,31.9,0l68.4-68.4c8.9-8.9,8.9-23.1,0-31.9
		l-68.4-68.4c-8.9-8.9-23.1-8.9-31.9,0L3812.8,754.7z"/>
	<path class="st1" d="M4024.9,797.8c-8.9-8.9-23.1-8.9-31.9,0l-68.4,68.4c-8.9,8.9-8.9,23.1,0,31.9l68.4,68.4
		c8.9,8.9,23.1,8.9,31.9,0l68.4-68.4c8.9-8.9,8.9-23.1,0-31.9L4024.9,797.8z"/>
	<path class="st1" d="M4204.8,786.6c8.9-8.9,8.9-23.1,0-31.9l-68.4-68.4c-8.9-8.9-23.1-8.9-31.9,0l-68.4,68.4
		c-8.9,8.9-8.9,23.1,0,31.9l68.4,68.4c8.9,8.9,23.1,8.9,31.9,0L4204.8,786.6z"/>
	<path class="st1" d="M5542.3,785.6c8.9-8.9,8.9-23.1,0-31.9l-68.4-68.4c-8.9-8.9-23.1-8.9-31.9,0l-68.4,68.4
		c-8.9,8.9-8.9,23.1,0,31.9l68.4,68.4c8.9,8.9,23.1,8.9,31.9,0L5542.3,785.6z"/>
	<path class="st1" d="M4469.1,797.8c-8.9-8.9-23.1-8.9-31.9,0l-68.4,68.4c-8.9,8.9-8.9,23.1,0,31.9l68.4,68.4
		c8.9,8.9,23.1,8.9,31.9,0l68.4-68.4c8.9-8.9,8.9-23.1,0-31.9L4469.1,797.8z"/>
	<path class="st1" d="M4214.2,966.8c8.9,8.9,23.1,8.9,31.9,0l68.4-68.4c8.9-8.9,8.9-23.1,0-31.9l-68.4-68.4
		c-8.9-8.9-23.1-8.9-31.9,0l-68.4,68.4c-8.9,8.9-8.9,23.1,0,31.9L4214.2,966.8z"/>
	<path class="st1" d="M4257,754.7c-8.9,8.9-8.9,23.1,0,31.9l68.4,68.4c8.9,8.9,23.1,8.9,31.9,0l68.4-68.4c8.9-8.9,8.9-23.1,0-31.9
		l-68.4-68.4c-8.9-8.9-23.1-8.9-31.9,0L4257,754.7z"/>
	<path class="st1" d="M4649,786.6c8.9-8.9,8.9-23.1,0-31.9l-68.4-68.4c-8.9-8.9-23.1-8.9-31.9,0l-68.4,68.4
		c-8.9,8.9-8.9,23.1,0,31.9l68.4,68.4c8.9,8.9,23.1,8.9,31.9,0L4649,786.6z"/>
	<path class="st1" d="M5361.1,797.8c-8.9-8.9-23.1-8.9-31.9,0l-68.4,68.4c-8.9,8.9-8.9,23.1,0,31.9l68.4,68.4
		c8.9,8.9,23.1,8.9,31.9,0l68.4-68.4c8.9-8.9,8.9-23.1,0-31.9L5361.1,797.8z"/>
	<path class="st1" d="M5106.2,966.8c8.9,8.9,23.1,8.9,31.9,0l68.4-68.4c8.9-8.9,8.9-23.1,0-31.9l-68.4-68.4
		c-8.9-8.9-23.1-8.9-31.9,0l-68.4,68.4c-8.9,8.9-8.9,23.1,0,31.9L5106.2,966.8z"/>
	<path class="st1" d="M5149,754.7c-8.9,8.9-8.9,23.1,0,31.9l68.4,68.4c8.9,8.9,23.1,8.9,31.9,0l68.4-68.4c8.9-8.9,8.9-23.1,0-31.9
		l-68.4-68.4c-8.9-8.9-23.1-8.9-31.9,0L5149,754.7z"/>
	<path class="st1" d="M4660.2,966.8c8.9,8.9,23.1,8.9,31.9,0l68.4-68.4c8.9-8.9,8.9-23.1,0-31.9l-68.4-68.4
		c-8.9-8.9-23.1-8.9-31.9,0l-68.4,68.4c-8.9,8.9-8.9,23.1,0,31.9L4660.2,966.8z"/>
	<path class="st1" d="M4703,754.7c-8.9,8.9-8.9,23.1,0,31.9l68.4,68.4c8.9,8.9,23.1,8.9,31.9,0l68.4-68.4c8.9-8.9,8.9-23.1,0-31.9
		l-68.4-68.4c-8.9-8.9-23.1-8.9-31.9,0L4703,754.7z"/>
	<path class="st1" d="M4915.1,797.8c-8.9-8.9-23.1-8.9-31.9,0l-68.4,68.4c-8.9,8.9-8.9,23.1,0,31.9l68.4,68.4
		c8.9,8.9,23.1,8.9,31.9,0l68.4-68.4c8.9-8.9,8.9-23.1,0-31.9L4915.1,797.8z"/>
	<path class="st1" d="M5095,786.6c8.9-8.9,8.9-23.1,0-31.9l-68.4-68.4c-8.9-8.9-23.1-8.9-31.9,0l-68.4,68.4
		c-8.9,8.9-8.9,23.1,0,31.9l68.4,68.4c8.9,8.9,23.1,8.9,31.9,0L5095,786.6z"/>
	<path class="st1" d="M5558.5,966.8c8.9,8.9,23.1,8.9,31.9,0l68.4-68.4c8.9-8.9,8.9-23.1,0-31.9l-68.4-68.4
		c-8.9-8.9-23.1-8.9-31.9,0l-68.4,68.4c-8.9,8.9-8.9,23.1,0,31.9L5558.5,966.8z"/>
	<path class="st1" d="M5601.3,754.7c-8.9,8.9-8.9,23.1,0,31.9l68.4,68.4c8.9,8.9,23.1,8.9,31.9,0l68.4-68.4c8.9-8.9,8.9-23.1,0-31.9
		l-68.4-68.4c-8.9-8.9-23.1-8.9-31.9,0L5601.3,754.7z"/>
	<path class="st1" d="M5813.4,797.8c-8.9-8.9-23.1-8.9-31.9,0l-68.4,68.4c-8.9,8.9-8.9,23.1,0,31.9l68.4,68.4
		c8.9,8.9,23.1,8.9,31.9,0l68.4-68.4c8.9-8.9,8.9-23.1,0-31.9L5813.4,797.8z"/>
	<path class="st1" d="M5993.3,786.6c8.9-8.9,8.9-23.1,0-31.9l-68.4-68.4c-8.9-8.9-23.1-8.9-31.9,0l-68.4,68.4
		c-8.9,8.9-8.9,23.1,0,31.9l68.4,68.4c8.9,8.9,23.1,8.9,31.9,0L5993.3,786.6z"/>
	<path class="st1" d="M1966.2,784.4c8.9-8.9,8.9-23.1,0-31.9l-68.4-68.4c-8.9-8.9-23.1-8.9-31.9,0l-68.4,68.4
		c-8.9,8.9-8.9,23.1,0,31.9l68.4,68.4c8.9,8.9,23.1,8.9,31.9,0L1966.2,784.4z"/>
</g>
<g>
	<path class="st1" d="M844.7,113.1c8.9-8.9,8.9-23.1,0-31.9l-68.4-68.4c-8.9-8.9-23.1-8.9-31.9,0l-68.4,68.4
		c-8.9,8.9-8.9,23.1,0,31.9l68.4,68.4c8.9,8.9,23.1,8.9,31.9,0L844.7,113.1z"/>
	<path class="st1" d="M410.1,293c8.9,8.9,23.1,8.9,31.9,0l68.4-68.4c8.9-8.9,8.9-23.1,0-31.9L442,124.2c-8.9-8.9-23.1-8.9-31.9,0
		l-68.4,68.4c-8.9,8.9-8.9,23.1,0,31.9L410.1,293z"/>
	<path class="st1" d="M452.6,81.2c-8.9,8.9-8.9,23.1,0,31.9l68.4,68.4c8.9,8.9,23.1,8.9,31.9,0l68.4-68.4c8.9-8.9,8.9-23.1,0-31.9
		L553,12.7c-8.9-8.9-23.1-8.9-31.9,0L452.6,81.2z"/>
	<path class="st1" d="M664.7,124c-8.9-8.9-23.1-8.9-31.9,0l-68.4,68.4c-8.9,8.9-8.9,23.1,0,31.9l68.4,68.4c8.9,8.9,23.1,8.9,31.9,0
		l68.4-68.4c8.9-8.9,8.9-23.1,0-31.9L664.7,124z"/>
	<path class="st1" d="M398.7,113.1c8.9-8.9,8.9-23.1,0-31.9l-68.4-68.4c-8.9-8.9-23.1-8.9-31.9,0l-68.4,68.4
		c-8.9,8.9-8.9,23.1,0,31.9l68.4,68.4c8.9,8.9,23.1,8.9,31.9,0L398.7,113.1z"/>
	<path class="st1" d="M6.7,81.2c-8.9,8.9-8.9,23.1,0,31.9l68.4,68.4c8.9,8.9,23.1,8.9,31.9,0l68.4-68.4c8.9-8.9,8.9-23.1,0-31.9
		L107,12.7c-8.9-8.9-23.1-8.9-31.9,0L6.7,81.2z"/>
	<path class="st1" d="M218.8,124c-8.9-8.9-23.1-8.9-31.9,0l-68.4,68.4c-8.9,8.9-8.9,23.1,0,31.9l68.4,68.4c8.9,8.9,23.1,8.9,31.9,0
		l68.4-68.4c8.9-8.9,8.9-23.1,0-31.9L218.8,124z"/>
	<path class="st1" d="M901.2,83.7c-8.9,8.9-8.9,23.1,0,31.9l68.4,68.4c8.9,8.9,23.1,8.9,31.9,0l68.4-68.4c8.9-8.9,8.9-23.1,0-31.9
		l-68.4-68.4c-8.9-8.9-23.1-8.9-31.9,0L901.2,83.7z"/>
	<path class="st1" d="M1113.3,126.8c-8.9-8.9-23.1-8.9-31.9,0l-68.4,68.4c-8.9,8.9-8.9,23.1,0,31.9l68.4,68.4
		c8.9,8.9,23.1,8.9,31.9,0l68.4-68.4c8.9-8.9,8.9-23.1,0-31.9L1113.3,126.8z"/>
	<path class="st1" d="M858.3,295.8c8.9,8.9,23.1,8.9,31.9,0l68.4-68.4c8.9-8.9,8.9-23.1,0-31.9L890.3,127c-8.9-8.9-23.1-8.9-31.9,0
		l-68.4,68.4c-8.9,8.9-8.9,23.1,0,31.9L858.3,295.8z"/>
	<g>
		<path class="st1" d="M3084.8,116.6c8.9-8.9,8.9-23.1,0-31.9l-68.4-68.4c-8.9-8.9-23.1-8.9-31.9,0L2916,84.7
			c-8.9,8.9-8.9,23.1,0,31.9l68.4,68.4c8.9,8.9,23.1,8.9,31.9,0L3084.8,116.6z"/>
	</g>
	<path class="st1" d="M3530.8,116.6c8.9-8.9,8.9-23.1,0-31.9l-68.4-68.4c-8.9-8.9-23.1-8.9-31.9,0L3362,84.7
		c-8.9,8.9-8.9,23.1,0,31.9l68.4,68.4c8.9,8.9,23.1,8.9,31.9,0L3530.8,116.6z"/>
	<path class="st1" d="M3095.9,296.8c8.9,8.9,23.1,8.9,31.9,0l68.4-68.4c8.9-8.9,8.9-23.1,0-31.9l-68.4-68.4
		c-8.9-8.9-23.1-8.9-31.9,0l-68.4,68.4c-8.9,8.9-8.9,23.1,0,31.9L3095.9,296.8z"/>
	<path class="st1" d="M3138.7,84.7c-8.9,8.9-8.9,23.1,0,31.9l68.4,68.4c8.9,8.9,23.1,8.9,31.9,0l68.4-68.4c8.9-8.9,8.9-23.1,0-31.9
		l-68.4-68.4c-8.9-8.9-23.1-8.9-31.9,0L3138.7,84.7z"/>
	<path class="st1" d="M3350.8,127.8c-8.9-8.9-23.1-8.9-31.9,0l-68.4,68.4c-8.9,8.9-8.9,23.1,0,31.9l68.4,68.4
		c8.9,8.9,23.1,8.9,31.9,0l68.4-68.4c8.9-8.9,8.9-23.1,0-31.9L3350.8,127.8z"/>
	<path class="st1" d="M3987.9,296.8c8.9,8.9,23.1,8.9,31.9,0l68.4-68.4c8.9-8.9,8.9-23.1,0-31.9l-68.4-68.4
		c-8.9-8.9-23.1-8.9-31.9,0l-68.4,68.4c-8.9,8.9-8.9,23.1,0,31.9L3987.9,296.8z"/>
	<path class="st1" d="M4030.7,84.7c-8.9,8.9-8.9,23.1,0,31.9l68.4,68.4c8.9,8.9,23.1,8.9,31.9,0l68.4-68.4c8.9-8.9,8.9-23.1,0-31.9
		l-68.4-68.4c-8.9-8.9-23.1-8.9-31.9,0L4030.7,84.7z"/>
	<path class="st1" d="M3976.8,116.6c8.9-8.9,8.9-23.1,0-31.9l-68.4-68.4c-8.9-8.9-23.1-8.9-31.9,0L3808,84.7
		c-8.9,8.9-8.9,23.1,0,31.9l68.4,68.4c8.9,8.9,23.1,8.9,31.9,0L3976.8,116.6z"/>
	<path class="st1" d="M3584.7,84.7c-8.9,8.9-8.9,23.1,0,31.9l68.4,68.4c8.9,8.9,23.1,8.9,31.9,0l68.4-68.4c8.9-8.9,8.9-23.1,0-31.9
		l-68.4-68.4c-8.9-8.9-23.1-8.9-31.9,0L3584.7,84.7z"/>
	<path class="st1" d="M3796.8,127.8c-8.9-8.9-23.1-8.9-31.9,0l-68.4,68.4c-8.9,8.9-8.9,23.1,0,31.9l68.4,68.4
		c8.9,8.9,23.1,8.9,31.9,0l68.4-68.4c8.9-8.9,8.9-23.1,0-31.9L3796.8,127.8z"/>
	<path class="st1" d="M3541.9,296.8c8.9,8.9,23.1,8.9,31.9,0l68.4-68.4c8.9-8.9,8.9-23.1,0-31.9l-68.4-68.4
		c-8.9-8.9-23.1-8.9-31.9,0l-68.4,68.4c-8.9,8.9-8.9,23.1,0,31.9L3541.9,296.8z"/>
	<path class="st1" d="M2691.5,85.7c-8.9,8.9-8.9,23.1,0,31.9l68.4,68.4c8.9,8.9,23.1,8.9,31.9,0l68.4-68.4c8.9-8.9,8.9-23.1,0-31.9
		l-68.4-68.4c-8.9-8.9-23.1-8.9-31.9,0L2691.5,85.7z"/>
	<path class="st1" d="M2903.6,128.8c-8.9-8.9-23.1-8.9-31.9,0l-68.4,68.4c-8.9,8.9-8.9,23.1,0,31.9l68.4,68.4
		c8.9,8.9,23.1,8.9,31.9,0l68.4-68.4c8.9-8.9,8.9-23.1,0-31.9L2903.6,128.8z"/>
	<path class="st1" d="M2648.7,297.8c8.9,8.9,23.1,8.9,31.9,0l68.4-68.4c8.9-8.9,8.9-23.1,0-31.9l-68.4-68.4
		c-8.9-8.9-23.1-8.9-31.9,0l-68.4,68.4c-8.9,8.9-8.9,23.1,0,31.9L2648.7,297.8z"/>
	<g>
		<path class="st1" d="M1297.2,115.4c8.9-8.9,8.9-23.1,0-31.9L1228.8,15c-8.9-8.9-23.1-8.9-31.9,0l-68.4,68.4
			c-8.9,8.9-8.9,23.1,0,31.9l68.4,68.4c8.9,8.9,23.1,8.9,31.9,0L1297.2,115.4z"/>
	</g>
	<path class="st1" d="M1743.2,115.4c8.9-8.9,8.9-23.1,0-31.9L1674.8,15c-8.9-8.9-23.1-8.9-31.9,0l-68.4,68.4
		c-8.9,8.9-8.9,23.1,0,31.9l68.4,68.4c8.9,8.9,23.1,8.9,31.9,0L1743.2,115.4z"/>
	<path class="st1" d="M1308.4,295.5c8.9,8.9,23.1,8.9,31.9,0l68.4-68.4c8.9-8.9,8.9-23.1,0-31.9l-68.4-68.4
		c-8.9-8.9-23.1-8.9-31.9,0l-68.4,68.4c-8.9,8.9-8.9,23.1,0,31.9L1308.4,295.5z"/>
	<path class="st1" d="M1351.2,83.4c-8.9,8.9-8.9,23.1,0,31.9l68.4,68.4c8.9,8.9,23.1,8.9,31.9,0l68.4-68.4c8.9-8.9,8.9-23.1,0-31.9
		L1451.6,15c-8.9-8.9-23.1-8.9-31.9,0L1351.2,83.4z"/>
	<path class="st1" d="M1563.3,126.5c-8.9-8.9-23.1-8.9-31.9,0l-68.4,68.4c-8.9,8.9-8.9,23.1,0,31.9l68.4,68.4
		c8.9,8.9,23.1,8.9,31.9,0l68.4-68.4c8.9-8.9,8.9-23.1,0-31.9L1563.3,126.5z"/>
	<path class="st1" d="M2635.2,115.4c8.9-8.9,8.9-23.1,0-31.9L2566.8,15c-8.9-8.9-23.1-8.9-31.9,0l-68.4,68.4
		c-8.9,8.9-8.9,23.1,0,31.9l68.4,68.4c8.9,8.9,23.1,8.9,31.9,0L2635.2,115.4z"/>
	<path class="st1" d="M2200.4,295.5c8.9,8.9,23.1,8.9,31.9,0l68.4-68.4c8.9-8.9,8.9-23.1,0-31.9l-68.4-68.4
		c-8.9-8.9-23.1-8.9-31.9,0l-68.4,68.4c-8.9,8.9-8.9,23.1,0,31.9L2200.4,295.5z"/>
	<path class="st1" d="M2243.2,83.4c-8.9,8.9-8.9,23.1,0,31.9l68.4,68.4c8.9,8.9,23.1,8.9,31.9,0l68.4-68.4c8.9-8.9,8.9-23.1,0-31.9
		L2343.6,15c-8.9-8.9-23.1-8.9-31.9,0L2243.2,83.4z"/>
	<path class="st1" d="M2455.3,126.5c-8.9-8.9-23.1-8.9-31.9,0l-68.4,68.4c-8.9,8.9-8.9,23.1,0,31.9l68.4,68.4
		c8.9,8.9,23.1,8.9,31.9,0l68.4-68.4c8.9-8.9,8.9-23.1,0-31.9L2455.3,126.5z"/>
	<g>
		<path class="st1" d="M4873.3,116.6c8.9-8.9,8.9-23.1,0-31.9l-68.4-68.4c-8.9-8.9-23.1-8.9-31.9,0l-68.4,68.4
			c-8.9,8.9-8.9,23.1,0,31.9l68.4,68.4c8.9,8.9,23.1,8.9,31.9,0L4873.3,116.6z"/>
	</g>
	<path class="st1" d="M5319.3,116.6c8.9-8.9,8.9-23.1,0-31.9l-68.4-68.4c-8.9-8.9-23.1-8.9-31.9,0l-68.4,68.4
		c-8.9,8.9-8.9,23.1,0,31.9l68.4,68.4c8.9,8.9,23.1,8.9,31.9,0L5319.3,116.6z"/>
	<path class="st1" d="M4884.4,296.8c8.9,8.9,23.1,8.9,31.9,0l68.4-68.4c8.9-8.9,8.9-23.1,0-31.9l-68.4-68.4
		c-8.9-8.9-23.1-8.9-31.9,0l-68.4,68.4c-8.9,8.9-8.9,23.1,0,31.9L4884.4,296.8z"/>
	<path class="st1" d="M4927.3,84.7c-8.9,8.9-8.9,23.1,0,31.9l68.4,68.4c8.9,8.9,23.1,8.9,31.9,0l68.4-68.4c8.9-8.9,8.9-23.1,0-31.9
		l-68.4-68.4c-8.9-8.9-23.1-8.9-31.9,0L4927.3,84.7z"/>
	<path class="st1" d="M5139.4,127.8c-8.9-8.9-23.1-8.9-31.9,0l-68.4,68.4c-8.9,8.9-8.9,23.1,0,31.9l68.4,68.4
		c8.9,8.9,23.1,8.9,31.9,0l68.4-68.4c8.9-8.9,8.9-23.1,0-31.9L5139.4,127.8z"/>
	<path class="st1" d="M5776.4,296.8c8.9,8.9,23.1,8.9,31.9,0l68.4-68.4c8.9-8.9,8.9-23.1,0-31.9l-68.4-68.4
		c-8.9-8.9-23.1-8.9-31.9,0l-68.4,68.4c-8.9,8.9-8.9,23.1,0,31.9L5776.4,296.8z"/>
	<path class="st1" d="M5819.3,84.7c-8.9,8.9-8.9,23.1,0,31.9l68.4,68.4c8.9,8.9,23.1,8.9,31.9,0l68.4-68.4c8.9-8.9,8.9-23.1,0-31.9
		l-68.4-68.4c-8.9-8.9-23.1-8.9-31.9,0L5819.3,84.7z"/>
	<path class="st1" d="M5765.3,116.6c8.9-8.9,8.9-23.1,0-31.9l-68.4-68.4c-8.9-8.9-23.1-8.9-31.9,0l-68.4,68.4
		c-8.9,8.9-8.9,23.1,0,31.9l68.4,68.4c8.9,8.9,23.1,8.9,31.9,0L5765.3,116.6z"/>
	<path class="st1" d="M5373.3,84.7c-8.9,8.9-8.9,23.1,0,31.9l68.4,68.4c8.9,8.9,23.1,8.9,31.9,0l68.4-68.4c8.9-8.9,8.9-23.1,0-31.9
		l-68.4-68.4c-8.9-8.9-23.1-8.9-31.9,0L5373.3,84.7z"/>
	<path class="st1" d="M5585.4,127.8c-8.9-8.9-23.1-8.9-31.9,0l-68.4,68.4c-8.9,8.9-8.9,23.1,0,31.9l68.4,68.4
		c8.9,8.9,23.1,8.9,31.9,0l68.4-68.4c8.9-8.9,8.9-23.1,0-31.9L5585.4,127.8z"/>
	<path class="st1" d="M5330.4,296.8c8.9,8.9,23.1,8.9,31.9,0l68.4-68.4c8.9-8.9,8.9-23.1,0-31.9l-68.4-68.4
		c-8.9-8.9-23.1-8.9-31.9,0l-68.4,68.4c-8.9,8.9-8.9,23.1,0,31.9L5330.4,296.8z"/>
	<path class="st1" d="M4480,85.7c-8.9,8.9-8.9,23.1,0,31.9l68.4,68.4c8.9,8.9,23.1,8.9,31.9,0l68.4-68.4c8.9-8.9,8.9-23.1,0-31.9
		l-68.4-68.4c-8.9-8.9-23.1-8.9-31.9,0L4480,85.7z"/>
	<path class="st1" d="M4692.1,128.8c-8.9-8.9-23.1-8.9-31.9,0l-68.4,68.4c-8.9,8.9-8.9,23.1,0,31.9l68.4,68.4
		c8.9,8.9,23.1,8.9,31.9,0l68.4-68.4c8.9-8.9,8.9-23.1,0-31.9L4692.1,128.8z"/>
	<path class="st1" d="M4437.2,297.8c8.9,8.9,23.1,8.9,31.9,0l68.4-68.4c8.9-8.9,8.9-23.1,0-31.9l-68.4-68.4
		c-8.9-8.9-23.1-8.9-31.9,0l-68.4,68.4c-8.9,8.9-8.9,23.1,0,31.9L4437.2,297.8z"/>
	<path class="st1" d="M4423.8,115.4c8.9-8.9,8.9-23.1,0-31.9L4355.3,15c-8.9-8.9-23.1-8.9-31.9,0L4255,83.4
		c-8.9,8.9-8.9,23.1,0,31.9l68.4,68.4c8.9,8.9,23.1,8.9,31.9,0L4423.8,115.4z"/>
	<path class="st1" d="M4243.8,126.5c-8.9-8.9-23.1-8.9-31.9,0l-68.4,68.4c-8.9,8.9-8.9,23.1,0,31.9l68.4,68.4
		c8.9,8.9,23.1,8.9,31.9,0l68.4-68.4c8.9-8.9,8.9-23.1,0-31.9L4243.8,126.5z"/>
	<path class="st1" d="M2189.2,115.4c8.9-8.9,8.9-23.1,0-31.9L2120.8,15c-8.9-8.9-23.1-8.9-31.9,0l-68.4,68.4
		c-8.9,8.9-8.9,23.1,0,31.9l68.4,68.4c8.9,8.9,23.1,8.9,31.9,0L2189.2,115.4z"/>
	<path class="st1" d="M1797.2,83.4c-8.9,8.9-8.9,23.1,0,31.9l68.4,68.4c8.9,8.9,23.1,8.9,31.9,0l68.4-68.4c8.9-8.9,8.9-23.1,0-31.9
		L1897.6,15c-8.9-8.9-23.1-8.9-31.9,0L1797.2,83.4z"/>
	<path class="st1" d="M2009.3,126.5c-8.9-8.9-23.1-8.9-31.9,0l-68.4,68.4c-8.9,8.9-8.9,23.1,0,31.9l68.4,68.4
		c8.9,8.9,23.1,8.9,31.9,0l68.4-68.4c8.9-8.9,8.9-23.1,0-31.9L2009.3,126.5z"/>
	<path class="st1" d="M1754.4,295.5c8.9,8.9,23.1,8.9,31.9,0l68.4-68.4c8.9-8.9,8.9-23.1,0-31.9l-68.4-68.4
		c-8.9-8.9-23.1-8.9-31.9,0l-68.4,68.4c-8.9,8.9-8.9,23.1,0,31.9L1754.4,295.5z"/>
</g>
<g class="st3">
	<path class="st1" d="M6.7,527.1c-8.9,8.9-8.9,23.1,0,31.9l68.4,68.4c8.9,8.9,23.1,8.9,31.9,0l68.4-68.4c8.9-8.9,8.9-23.1,0-31.9
		L107,458.7c-8.9-8.9-23.1-8.9-31.9,0L6.7,527.1z"/>
	<path class="st1" d="M218.8,570c-8.9-8.9-23.1-8.9-31.9,0l-68.4,68.4c-8.9,8.9-8.9,23.1,0,31.9l68.4,68.4c8.9,8.9,23.1,8.9,31.9,0
		l68.4-68.4c8.9-8.9,8.9-23.1,0-31.9L218.8,570z"/>
	<path class="st1" d="M398.7,559.1c8.9-8.9,8.9-23.1,0-31.9l-68.4-68.4c-8.9-8.9-23.1-8.9-31.9,0l-68.4,68.4
		c-8.9,8.9-8.9,23.1,0,31.9l68.4,68.4c8.9,8.9,23.1,8.9,31.9,0L398.7,559.1z"/>
	<path class="st1" d="M455.2,529.7c-8.9,8.9-8.9,23.1,0,31.9l68.4,68.4c8.9,8.9,23.1,8.9,31.9,0l68.4-68.4c8.9-8.9,8.9-23.1,0-31.9
		l-68.4-68.4c-8.9-8.9-23.1-8.9-31.9,0L455.2,529.7z"/>
	<path class="st1" d="M667.3,572.8c-8.9-8.9-23.1-8.9-31.9,0l-68.4,68.4c-8.9,8.9-8.9,23.1,0,31.9l68.4,68.4
		c8.9,8.9,23.1,8.9,31.9,0l68.4-68.4c8.9-8.9,8.9-23.1,0-31.9L667.3,572.8z"/>
	<path class="st1" d="M412.4,741.8c8.9,8.9,23.1,8.9,31.9,0l68.4-68.4c8.9-8.9,8.9-23.1,0-31.9L444.3,573c-8.9-8.9-23.1-8.9-31.9,0
		l-68.4,68.4c-8.9,8.9-8.9,23.1,0,31.9L412.4,741.8z"/>
	<path class="st1" d="M1293.2,561.6c8.9-8.9,8.9-23.1,0-31.9l-68.4-68.4c-8.9-8.9-23.1-8.9-31.9,0l-68.4,68.4
		c-8.9,8.9-8.9,23.1,0,31.9l68.4,68.4c8.9,8.9,23.1,8.9,31.9,0L1293.2,561.6z"/>
	<path class="st1" d="M858.3,741.8c8.9,8.9,23.1,8.9,31.9,0l68.4-68.4c8.9-8.9,8.9-23.1,0-31.9L890.3,573c-8.9-8.9-23.1-8.9-31.9,0
		l-68.4,68.4c-8.9,8.9-8.9,23.1,0,31.9L858.3,741.8z"/>
	<path class="st1" d="M901.2,529.7c-8.9,8.9-8.9,23.1,0,31.9l68.4,68.4c8.9,8.9,23.1,8.9,31.9,0l68.4-68.4c8.9-8.9,8.9-23.1,0-31.9
		l-68.4-68.4c-8.9-8.9-23.1-8.9-31.9,0L901.2,529.7z"/>
	<path class="st1" d="M1113.3,572.8c-8.9-8.9-23.1-8.9-31.9,0l-68.4,68.4c-8.9,8.9-8.9,23.1,0,31.9l68.4,68.4
		c8.9,8.9,23.1,8.9,31.9,0l68.4-68.4c8.9-8.9,8.9-23.1,0-31.9L1113.3,572.8z"/>
	<path class="st1" d="M847.2,561.6c8.9-8.9,8.9-23.1,0-31.9l-68.4-68.4c-8.9-8.9-23.1-8.9-31.9,0l-68.4,68.4
		c-8.9,8.9-8.9,23.1,0,31.9l68.4,68.4c8.9,8.9,23.1,8.9,31.9,0L847.2,561.6z"/>
	<path class="st1" d="M1347.2,529.7c-8.9,8.9-8.9,23.1,0,31.9l68.4,68.4c8.9,8.9,23.1,8.9,31.9,0l68.4-68.4c8.9-8.9,8.9-23.1,0-31.9
		l-68.4-68.4c-8.9-8.9-23.1-8.9-31.9,0L1347.2,529.7z"/>
	<path class="st1" d="M1559.3,572.8c-8.9-8.9-23.1-8.9-31.9,0l-68.4,68.4c-8.9,8.9-8.9,23.1,0,31.9l68.4,68.4
		c8.9,8.9,23.1,8.9,31.9,0l68.4-68.4c8.9-8.9,8.9-23.1,0-31.9L1559.3,572.8z"/>
	<path class="st1" d="M1304.3,741.8c8.9,8.9,23.1,8.9,31.9,0l68.4-68.4c8.9-8.9,8.9-23.1,0-31.9l-68.4-68.4
		c-8.9-8.9-23.1-8.9-31.9,0l-68.4,68.4c-8.9,8.9-8.9,23.1,0,31.9L1304.3,741.8z"/>
	<path class="st1" d="M3541.9,742.8c8.9,8.9,23.1,8.9,31.9,0l68.4-68.4c8.9-8.9,8.9-23.1,0-31.9l-68.4-68.4
		c-8.9-8.9-23.1-8.9-31.9,0l-68.4,68.4c-8.9,8.9-8.9,23.1,0,31.9L3541.9,742.8z"/>
	<path class="st1" d="M3584.7,530.7c-8.9,8.9-8.9,23.1,0,31.9l68.4,68.4c8.9,8.9,23.1,8.9,31.9,0l68.4-68.4c8.9-8.9,8.9-23.1,0-31.9
		l-68.4-68.4c-8.9-8.9-23.1-8.9-31.9,0L3584.7,530.7z"/>
	<path class="st1" d="M3796.8,573.8c-8.9-8.9-23.1-8.9-31.9,0l-68.4,68.4c-8.9,8.9-8.9,23.1,0,31.9l68.4,68.4
		c8.9,8.9,23.1,8.9,31.9,0l68.4-68.4c8.9-8.9,8.9-23.1,0-31.9L3796.8,573.8z"/>
	<path class="st1" d="M3530.8,562.6c8.9-8.9,8.9-23.1,0-31.9l-68.4-68.4c-8.9-8.9-23.1-8.9-31.9,0l-68.4,68.4
		c-8.9,8.9-8.9,23.1,0,31.9l68.4,68.4c8.9,8.9,23.1,8.9,31.9,0L3530.8,562.6z"/>
	<path class="st1" d="M3976.8,562.6c8.9-8.9,8.9-23.1,0-31.9l-68.4-68.4c-8.9-8.9-23.1-8.9-31.9,0l-68.4,68.4
		c-8.9,8.9-8.9,23.1,0,31.9l68.4,68.4c8.9,8.9,23.1,8.9,31.9,0L3976.8,562.6z"/>
	<path class="st1" d="M2245.5,531.7c-8.9,8.9-8.9,23.1,0,31.9l68.4,68.4c8.9,8.9,23.1,8.9,31.9,0l68.4-68.4c8.9-8.9,8.9-23.1,0-31.9
		l-68.4-68.4c-8.9-8.9-23.1-8.9-31.9,0L2245.5,531.7z"/>
	<path class="st1" d="M2457.6,574.8c-8.9-8.9-23.1-8.9-31.9,0l-68.4,68.4c-8.9,8.9-8.9,23.1,0,31.9l68.4,68.4
		c8.9,8.9,23.1,8.9,31.9,0l68.4-68.4c8.9-8.9,8.9-23.1,0-31.9L2457.6,574.8z"/>
	<path class="st1" d="M2202.7,743.8c8.9,8.9,23.1,8.9,31.9,0l68.4-68.4c8.9-8.9,8.9-23.1,0-31.9l-68.4-68.4
		c-8.9-8.9-23.1-8.9-31.9,0l-68.4,68.4c-8.9,8.9-8.9,23.1,0,31.9L2202.7,743.8z"/>
	<path class="st1" d="M3083.5,563.6c8.9-8.9,8.9-23.1,0-31.9l-68.4-68.4c-8.9-8.9-23.1-8.9-31.9,0l-68.4,68.4
		c-8.9,8.9-8.9,23.1,0,31.9l68.4,68.4c8.9,8.9,23.1,8.9,31.9,0L3083.5,563.6z"/>
	<path class="st1" d="M2648.7,743.8c8.9,8.9,23.1,8.9,31.9,0l68.4-68.4c8.9-8.9,8.9-23.1,0-31.9l-68.4-68.4
		c-8.9-8.9-23.1-8.9-31.9,0l-68.4,68.4c-8.9,8.9-8.9,23.1,0,31.9L2648.7,743.8z"/>
	<path class="st1" d="M2691.5,531.7c-8.9,8.9-8.9,23.1,0,31.9l68.4,68.4c8.9,8.9,23.1,8.9,31.9,0l68.4-68.4c8.9-8.9,8.9-23.1,0-31.9
		l-68.4-68.4c-8.9-8.9-23.1-8.9-31.9,0L2691.5,531.7z"/>
	<path class="st1" d="M2903.6,574.8c-8.9-8.9-23.1-8.9-31.9,0l-68.4,68.4c-8.9,8.9-8.9,23.1,0,31.9l68.4,68.4
		c8.9,8.9,23.1,8.9,31.9,0l68.4-68.4c8.9-8.9,8.9-23.1,0-31.9L2903.6,574.8z"/>
	<path class="st1" d="M2637.5,563.6c8.9-8.9,8.9-23.1,0-31.9l-68.4-68.4c-8.9-8.9-23.1-8.9-31.9,0l-68.4,68.4
		c-8.9,8.9-8.9,23.1,0,31.9l68.4,68.4c8.9,8.9,23.1,8.9,31.9,0L2637.5,563.6z"/>
	<path class="st1" d="M3137.5,531.7c-8.9,8.9-8.9,23.1,0,31.9l68.4,68.4c8.9,8.9,23.1,8.9,31.9,0l68.4-68.4c8.9-8.9,8.9-23.1,0-31.9
		l-68.4-68.4c-8.9-8.9-23.1-8.9-31.9,0L3137.5,531.7z"/>
	<path class="st1" d="M3349.6,574.8c-8.9-8.9-23.1-8.9-31.9,0l-68.4,68.4c-8.9,8.9-8.9,23.1,0,31.9l68.4,68.4
		c8.9,8.9,23.1,8.9,31.9,0l68.4-68.4c8.9-8.9,8.9-23.1,0-31.9L3349.6,574.8z"/>
	<path class="st1" d="M3094.6,743.8c8.9,8.9,23.1,8.9,31.9,0l68.4-68.4c8.9-8.9,8.9-23.1,0-31.9l-68.4-68.4
		c-8.9-8.9-23.1-8.9-31.9,0l-68.4,68.4c-8.9,8.9-8.9,23.1,0,31.9L3094.6,743.8z"/>
	<path class="st1" d="M4035.8,531.7c-8.9,8.9-8.9,23.1,0,31.9l68.4,68.4c8.9,8.9,23.1,8.9,31.9,0l68.4-68.4c8.9-8.9,8.9-23.1,0-31.9
		l-68.4-68.4c-8.9-8.9-23.1-8.9-31.9,0L4035.8,531.7z"/>
	<path class="st1" d="M3993,743.8c8.9,8.9,23.1,8.9,31.9,0l68.4-68.4c8.9-8.9,8.9-23.1,0-31.9l-68.4-68.4c-8.9-8.9-23.1-8.9-31.9,0
		l-68.4,68.4c-8.9,8.9-8.9,23.1,0,31.9L3993,743.8z"/>
	<path class="st1" d="M5330.4,742.8c8.9,8.9,23.1,8.9,31.9,0l68.4-68.4c8.9-8.9,8.9-23.1,0-31.9l-68.4-68.4
		c-8.9-8.9-23.1-8.9-31.9,0l-68.4,68.4c-8.9,8.9-8.9,23.1,0,31.9L5330.4,742.8z"/>
	<path class="st1" d="M5373.3,530.7c-8.9,8.9-8.9,23.1,0,31.9l68.4,68.4c8.9,8.9,23.1,8.9,31.9,0l68.4-68.4c8.9-8.9,8.9-23.1,0-31.9
		l-68.4-68.4c-8.9-8.9-23.1-8.9-31.9,0L5373.3,530.7z"/>
	<path class="st1" d="M5585.4,573.8c-8.9-8.9-23.1-8.9-31.9,0l-68.4,68.4c-8.9,8.9-8.9,23.1,0,31.9l68.4,68.4
		c8.9,8.9,23.1,8.9,31.9,0l68.4-68.4c8.9-8.9,8.9-23.1,0-31.9L5585.4,573.8z"/>
	<path class="st1" d="M5319.3,562.6c8.9-8.9,8.9-23.1,0-31.9l-68.4-68.4c-8.9-8.9-23.1-8.9-31.9,0l-68.4,68.4
		c-8.9,8.9-8.9,23.1,0,31.9l68.4,68.4c8.9,8.9,23.1,8.9,31.9,0L5319.3,562.6z"/>
	<path class="st1" d="M5765.3,562.6c8.9-8.9,8.9-23.1,0-31.9l-68.4-68.4c-8.9-8.9-23.1-8.9-31.9,0l-68.4,68.4
		c-8.9,8.9-8.9,23.1,0,31.9l68.4,68.4c8.9,8.9,23.1,8.9,31.9,0L5765.3,562.6z"/>
	<path class="st1" d="M4246.1,574.8c-8.9-8.9-23.1-8.9-31.9,0l-68.4,68.4c-8.9,8.9-8.9,23.1,0,31.9l68.4,68.4
		c8.9,8.9,23.1,8.9,31.9,0l68.4-68.4c8.9-8.9,8.9-23.1,0-31.9L4246.1,574.8z"/>
	<path class="st1" d="M4872,563.6c8.9-8.9,8.9-23.1,0-31.9l-68.4-68.4c-8.9-8.9-23.1-8.9-31.9,0l-68.4,68.4
		c-8.9,8.9-8.9,23.1,0,31.9l68.4,68.4c8.9,8.9,23.1,8.9,31.9,0L4872,563.6z"/>
	<path class="st1" d="M4437.2,743.8c8.9,8.9,23.1,8.9,31.9,0l68.4-68.4c8.9-8.9,8.9-23.1,0-31.9l-68.4-68.4
		c-8.9-8.9-23.1-8.9-31.9,0l-68.4,68.4c-8.9,8.9-8.9,23.1,0,31.9L4437.2,743.8z"/>
	<path class="st1" d="M4480,531.7c-8.9,8.9-8.9,23.1,0,31.9l68.4,68.4c8.9,8.9,23.1,8.9,31.9,0l68.4-68.4c8.9-8.9,8.9-23.1,0-31.9
		l-68.4-68.4c-8.9-8.9-23.1-8.9-31.9,0L4480,531.7z"/>
	<path class="st1" d="M4692.1,574.8c-8.9-8.9-23.1-8.9-31.9,0l-68.4,68.4c-8.9,8.9-8.9,23.1,0,31.9l68.4,68.4
		c8.9,8.9,23.1,8.9,31.9,0l68.4-68.4c8.9-8.9,8.9-23.1,0-31.9L4692.1,574.8z"/>
	<path class="st1" d="M4426,563.6c8.9-8.9,8.9-23.1,0-31.9l-68.4-68.4c-8.9-8.9-23.1-8.9-31.9,0l-68.4,68.4
		c-8.9,8.9-8.9,23.1,0,31.9l68.4,68.4c8.9,8.9,23.1,8.9,31.9,0L4426,563.6z"/>
	<path class="st1" d="M4926,531.7c-8.9,8.9-8.9,23.1,0,31.9l68.4,68.4c8.9,8.9,23.1,8.9,31.9,0l68.4-68.4c8.9-8.9,8.9-23.1,0-31.9
		l-68.4-68.4c-8.9-8.9-23.1-8.9-31.9,0L4926,531.7z"/>
	<path class="st1" d="M5138.1,574.8c-8.9-8.9-23.1-8.9-31.9,0l-68.4,68.4c-8.9,8.9-8.9,23.1,0,31.9l68.4,68.4
		c8.9,8.9,23.1,8.9,31.9,0l68.4-68.4c8.9-8.9,8.9-23.1,0-31.9L5138.1,574.8z"/>
	<path class="st1" d="M4883.2,743.8c8.9,8.9,23.1,8.9,31.9,0l68.4-68.4c8.9-8.9,8.9-23.1,0-31.9l-68.4-68.4
		c-8.9-8.9-23.1-8.9-31.9,0l-68.4,68.4c-8.9,8.9-8.9,23.1,0,31.9L4883.2,743.8z"/>
	<path class="st1" d="M5824.3,531.7c-8.9,8.9-8.9,23.1,0,31.9l68.4,68.4c8.9,8.9,23.1,8.9,31.9,0l68.4-68.4c8.9-8.9,8.9-23.1,0-31.9
		l-68.4-68.4c-8.9-8.9-23.1-8.9-31.9,0L5824.3,531.7z"/>
	<path class="st1" d="M5781.5,743.8c8.9,8.9,23.1,8.9,31.9,0l68.4-68.4c8.9-8.9,8.9-23.1,0-31.9l-68.4-68.4
		c-8.9-8.9-23.1-8.9-31.9,0l-68.4,68.4c-8.9,8.9-8.9,23.1,0,31.9L5781.5,743.8z"/>
	<path class="st1" d="M1754.4,741.5c8.9,8.9,23.1,8.9,31.9,0l68.4-68.4c8.9-8.9,8.9-23.1,0-31.9l-68.4-68.4
		c-8.9-8.9-23.1-8.9-31.9,0l-68.4,68.4c-8.9,8.9-8.9,23.1,0,31.9L1754.4,741.5z"/>
	<path class="st1" d="M1797.2,529.4c-8.9,8.9-8.9,23.1,0,31.9l68.4,68.4c8.9,8.9,23.1,8.9,31.9,0l68.4-68.4c8.9-8.9,8.9-23.1,0-31.9
		l-68.4-68.4c-8.9-8.9-23.1-8.9-31.9,0L1797.2,529.4z"/>
	<path class="st1" d="M2009.3,572.5c-8.9-8.9-23.1-8.9-31.9,0l-68.4,68.4c-8.9,8.9-8.9,23.1,0,31.9l68.4,68.4
		c8.9,8.9,23.1,8.9,31.9,0l68.4-68.4c8.9-8.9,8.9-23.1,0-31.9L2009.3,572.5z"/>
	<path class="st1" d="M1743.2,561.4c8.9-8.9,8.9-23.1,0-31.9l-68.4-68.4c-8.9-8.9-23.1-8.9-31.9,0l-68.4,68.4
		c-8.9,8.9-8.9,23.1,0,31.9l68.4,68.4c8.9,8.9,23.1,8.9,31.9,0L1743.2,561.4z"/>
	<path class="st1" d="M2189.2,561.4c8.9-8.9,8.9-23.1,0-31.9l-68.4-68.4c-8.9-8.9-23.1-8.9-31.9,0l-68.4,68.4
		c-8.9,8.9-8.9,23.1,0,31.9l68.4,68.4c8.9,8.9,23.1,8.9,31.9,0L2189.2,561.4z"/>
</g>
<g class="st4">
	<path class="st1" d="M621.7,336.1c8.9-8.9,8.9-23.1,0-31.9l-68.4-68.4c-8.9-8.9-23.1-8.9-31.9,0l-68.4,68.4
		c-8.9,8.9-8.9,23.1,0,31.9l68.4,68.4c8.9,8.9,23.1,8.9,31.9,0L621.7,336.1z"/>
	<path class="st1" d="M175.7,336.1c8.9-8.9,8.9-23.1,0-31.9l-68.4-68.4c-8.9-8.9-23.1-8.9-31.9,0L6.9,304.1
		c-8.9,8.9-8.9,23.1,0,31.9l68.4,68.4c8.9,8.9,23.1,8.9,31.9,0L175.7,336.1z"/>
	<path class="st1" d="M441.7,347c-8.9-8.9-23.1-8.9-31.9,0l-68.4,68.4c-8.9,8.9-8.9,23.1,0,31.9l68.4,68.4c8.9,8.9,23.1,8.9,31.9,0
		l68.4-68.4c8.9-8.9,8.9-23.1,0-31.9L441.7,347z"/>
	<path class="st1" d="M187.1,516c8.9,8.9,23.1,8.9,31.9,0l68.4-68.4c8.9-8.9,8.9-23.1,0-31.9L219,347.2c-8.9-8.9-23.1-8.9-31.9,0
		l-68.4,68.4c-8.9,8.9-8.9,23.1,0,31.9L187.1,516z"/>
	<path class="st1" d="M229.6,304.1c-8.9,8.9-8.9,23.1,0,31.9l68.4,68.4c8.9,8.9,23.1,8.9,31.9,0l68.4-68.4c8.9-8.9,8.9-23.1,0-31.9
		L330,235.7c-8.9-8.9-23.1-8.9-31.9,0L229.6,304.1z"/>
	<path class="st1" d="M1070.2,338.6c8.9-8.9,8.9-23.1,0-31.9l-68.4-68.4c-8.9-8.9-23.1-8.9-31.9,0l-68.4,68.4
		c-8.9,8.9-8.9,23.1,0,31.9l68.4,68.4c8.9,8.9,23.1,8.9,31.9,0L1070.2,338.6z"/>
	<path class="st1" d="M1336.3,349.8c-8.9-8.9-23.1-8.9-31.9,0l-68.4,68.4c-8.9,8.9-8.9,23.1,0,31.9l68.4,68.4
		c8.9,8.9,23.1,8.9,31.9,0l68.4-68.4c8.9-8.9,8.9-23.1,0-31.9L1336.3,349.8z"/>
	<path class="st1" d="M1081.3,518.8c8.9,8.9,23.1,8.9,31.9,0l68.4-68.4c8.9-8.9,8.9-23.1,0-31.9l-68.4-68.4
		c-8.9-8.9-23.1-8.9-31.9,0l-68.4,68.4c-8.9,8.9-8.9,23.1,0,31.9L1081.3,518.8z"/>
	<path class="st1" d="M1124.2,306.7c-8.9,8.9-8.9,23.1,0,31.9l68.4,68.4c8.9,8.9,23.1,8.9,31.9,0l68.4-68.4c8.9-8.9,8.9-23.1,0-31.9
		l-68.4-68.4c-8.9-8.9-23.1-8.9-31.9,0L1124.2,306.7z"/>
	<path class="st1" d="M635.4,518.8c8.9,8.9,23.1,8.9,31.9,0l68.4-68.4c8.9-8.9,8.9-23.1,0-31.9L667.3,350c-8.9-8.9-23.1-8.9-31.9,0
		l-68.4,68.4c-8.9,8.9-8.9,23.1,0,31.9L635.4,518.8z"/>
	<path class="st1" d="M678.2,306.7c-8.9,8.9-8.9,23.1,0,31.9l68.4,68.4c8.9,8.9,23.1,8.9,31.9,0l68.4-68.4c8.9-8.9,8.9-23.1,0-31.9
		l-68.4-68.4c-8.9-8.9-23.1-8.9-31.9,0L678.2,306.7z"/>
	<path class="st1" d="M890.3,349.8c-8.9-8.9-23.1-8.9-31.9,0l-68.4,68.4c-8.9,8.9-8.9,23.1,0,31.9l68.4,68.4
		c8.9,8.9,23.1,8.9,31.9,0l68.4-68.4c8.9-8.9,8.9-23.1,0-31.9L890.3,349.8z"/>
	<path class="st1" d="M3307.8,339.6c8.9-8.9,8.9-23.1,0-31.9l-68.4-68.4c-8.9-8.9-23.1-8.9-31.9,0l-68.4,68.4
		c-8.9,8.9-8.9,23.1,0,31.9l68.4,68.4c8.9,8.9,23.1,8.9,31.9,0L3307.8,339.6z"/>
	<path class="st1" d="M4199.7,339.1c8.9-8.9,8.6-23.1-0.3-31.9l-68.9-68.2c-8.9-8.9-23.1-8.6-31.9,0.3l-67.9,69.2
		c-8.9,8.9-8.6,23.1,0.3,31.9l68.9,68.2c8.9,8.9,23.1,8.6,31.9-0.3L4199.7,339.1z"/>
	<path class="st1" d="M3318.9,519.8c8.9,8.9,23.1,8.9,31.9,0l68.4-68.4c8.9-8.9,8.9-23.1,0-31.9l-68.4-68.4
		c-8.9-8.9-23.1-8.9-31.9,0l-68.4,68.4c-8.9,8.9-8.9,23.1,0,31.9L3318.9,519.8z"/>
	<path class="st1" d="M3361.7,307.7c-8.9,8.9-8.9,23.1,0,31.9l68.4,68.4c8.9,8.9,23.1,8.9,31.9,0l68.4-68.4c8.9-8.9,8.9-23.1,0-31.9
		l-68.4-68.4c-8.9-8.9-23.1-8.9-31.9,0L3361.7,307.7z"/>
	<path class="st1" d="M3573.8,350.8c-8.9-8.9-23.1-8.9-31.9,0l-68.4,68.4c-8.9,8.9-8.9,23.1,0,31.9l68.4,68.4
		c8.9,8.9,23.1,8.9,31.9,0l68.4-68.4c8.9-8.9,8.9-23.1,0-31.9L3573.8,350.8z"/>
	<path class="st1" d="M3753.8,339.6c8.9-8.9,8.9-23.1,0-31.9l-68.4-68.4c-8.9-8.9-23.1-8.9-31.9,0l-68.4,68.4
		c-8.9,8.9-8.9,23.1,0,31.9l68.4,68.4c8.9,8.9,23.1,8.9,31.9,0L3753.8,339.6z"/>
	<path class="st1" d="M4019.8,350.8c-8.9-8.9-23.1-8.9-31.9,0l-68.4,68.4c-8.9,8.9-8.9,23.1,0,31.9l68.4,68.4
		c8.9,8.9,23.1,8.9,31.9,0l68.4-68.4c8.9-8.9,8.9-23.1,0-31.9L4019.8,350.8z"/>
	<path class="st1" d="M3764.9,519.8c8.9,8.9,23.1,8.9,31.9,0l68.4-68.4c8.9-8.9,8.9-23.1,0-31.9l-68.4-68.4
		c-8.9-8.9-23.1-8.9-31.9,0l-68.4,68.4c-8.9,8.9-8.9,23.1,0,31.9L3764.9,519.8z"/>
	<path class="st1" d="M3807.7,307.7c-8.9,8.9-8.9,23.1,0,31.9l68.4,68.4c8.9,8.9,23.1,8.9,31.9,0l68.4-68.4c8.9-8.9,8.9-23.1,0-31.9
		l-68.4-68.4c-8.9-8.9-23.1-8.9-31.9,0L3807.7,307.7z"/>
	<path class="st1" d="M2860.5,340.6c8.9-8.9,8.9-23.1,0-31.9l-68.4-68.4c-8.9-8.9-23.1-8.9-31.9,0l-68.4,68.4
		c-8.9,8.9-8.9,23.1,0,31.9l68.4,68.4c8.9,8.9,23.1,8.9,31.9,0L2860.5,340.6z"/>
	<path class="st1" d="M3126.6,351.8c-8.9-8.9-23.1-8.9-31.9,0l-68.4,68.4c-8.9,8.9-8.9,23.1,0,31.9l68.4,68.4
		c8.9,8.9,23.1,8.9,31.9,0l68.4-68.4c8.9-8.9,8.9-23.1,0-31.9L3126.6,351.8z"/>
	<path class="st1" d="M2871.7,520.8c8.9,8.9,23.1,8.9,31.9,0l68.4-68.4c8.9-8.9,8.9-23.1,0-31.9l-68.4-68.4
		c-8.9-8.9-23.1-8.9-31.9,0l-68.4,68.4c-8.9,8.9-8.9,23.1,0,31.9L2871.7,520.8z"/>
	<path class="st1" d="M2914.5,308.7c-8.9,8.9-8.9,23.1,0,31.9l68.4,68.4c8.9,8.9,23.1,8.9,31.9,0l68.4-68.4c8.9-8.9,8.9-23.1,0-31.9
		l-68.4-68.4c-8.9-8.9-23.1-8.9-31.9,0L2914.5,308.7z"/>
	<path class="st1" d="M2425.7,520.8c8.9,8.9,23.1,8.9,31.9,0l68.4-68.4c8.9-8.9,8.9-23.1,0-31.9l-68.4-68.4
		c-8.9-8.9-23.1-8.9-31.9,0l-68.4,68.4c-8.9,8.9-8.9,23.1,0,31.9L2425.7,520.8z"/>
	<path class="st1" d="M2468.5,308.7c-8.9,8.9-8.9,23.1,0,31.9l68.4,68.4c8.9,8.9,23.1,8.9,31.9,0l68.4-68.4c8.9-8.9,8.9-23.1,0-31.9
		l-68.4-68.4c-8.9-8.9-23.1-8.9-31.9,0L2468.5,308.7z"/>
	<path class="st1" d="M2680.6,351.8c-8.9-8.9-23.1-8.9-31.9,0l-68.4,68.4c-8.9,8.9-8.9,23.1,0,31.9l68.4,68.4
		c8.9,8.9,23.1,8.9,31.9,0l68.4-68.4c8.9-8.9,8.9-23.1,0-31.9L2680.6,351.8z"/>
	<path class="st1" d="M1520.2,338.4c8.9-8.9,8.9-23.1,0-31.9l-68.4-68.4c-8.9-8.9-23.1-8.9-31.9,0l-68.4,68.4
		c-8.9,8.9-8.9,23.1,0,31.9l68.4,68.4c8.9,8.9,23.1,8.9,31.9,0L1520.2,338.4z"/>
	<path class="st1" d="M2412.2,337.9c8.9-8.9,8.6-23.1-0.3-31.9l-68.9-68.2c-8.9-8.9-23.1-8.6-31.9,0.3l-67.9,69.2
		c-8.9,8.9-8.6,23.1,0.3,31.9l68.9,68.2c8.9,8.9,23.1,8.6,31.9-0.3L2412.2,337.9z"/>
	<path class="st1" d="M5096.3,339.6c8.9-8.9,8.9-23.1,0-31.9l-68.4-68.4c-8.9-8.9-23.1-8.9-31.9,0l-68.4,68.4
		c-8.9,8.9-8.9,23.1,0,31.9l68.4,68.4c8.9,8.9,23.1,8.9,31.9,0L5096.3,339.6z"/>
	<path class="st1" d="M5988.3,339.1c8.9-8.9,8.6-23.1-0.3-31.9l-68.9-68.2c-8.9-8.9-23.1-8.6-31.9,0.3l-67.9,69.2
		c-8.9,8.9-8.6,23.1,0.3,31.9l68.9,68.2c8.9,8.9,23.1,8.6,31.9-0.3L5988.3,339.1z"/>
	<path class="st1" d="M5107.4,519.8c8.9,8.9,23.1,8.9,31.9,0l68.4-68.4c8.9-8.9,8.9-23.1,0-31.9l-68.4-68.4
		c-8.9-8.9-23.1-8.9-31.9,0l-68.4,68.4c-8.9,8.9-8.9,23.1,0,31.9L5107.4,519.8z"/>
	<path class="st1" d="M5150.3,307.7c-8.9,8.9-8.9,23.1,0,31.9l68.4,68.4c8.9,8.9,23.1,8.9,31.9,0l68.4-68.4c8.9-8.9,8.9-23.1,0-31.9
		l-68.4-68.4c-8.9-8.9-23.1-8.9-31.9,0L5150.3,307.7z"/>
	<path class="st1" d="M5362.4,350.8c-8.9-8.9-23.1-8.9-31.9,0l-68.4,68.4c-8.9,8.9-8.9,23.1,0,31.9l68.4,68.4
		c8.9,8.9,23.1,8.9,31.9,0l68.4-68.4c8.9-8.9,8.9-23.1,0-31.9L5362.4,350.8z"/>
	<path class="st1" d="M5542.3,339.6c8.9-8.9,8.9-23.1,0-31.9l-68.4-68.4c-8.9-8.9-23.1-8.9-31.9,0l-68.4,68.4
		c-8.9,8.9-8.9,23.1,0,31.9l68.4,68.4c8.9,8.9,23.1,8.9,31.9,0L5542.3,339.6z"/>
	<path class="st1" d="M5808.4,350.8c-8.9-8.9-23.1-8.9-31.9,0l-68.4,68.4c-8.9,8.9-8.9,23.1,0,31.9l68.4,68.4
		c8.9,8.9,23.1,8.9,31.9,0l68.4-68.4c8.9-8.9,8.9-23.1,0-31.9L5808.4,350.8z"/>
	<path class="st1" d="M5553.4,519.8c8.9,8.9,23.1,8.9,31.9,0l68.4-68.4c8.9-8.9,8.9-23.1,0-31.9l-68.4-68.4
		c-8.9-8.9-23.1-8.9-31.9,0l-68.4,68.4c-8.9,8.9-8.9,23.1,0,31.9L5553.4,519.8z"/>
	<path class="st1" d="M5596.3,307.7c-8.9,8.9-8.9,23.1,0,31.9l68.4,68.4c8.9,8.9,23.1,8.9,31.9,0l68.4-68.4c8.9-8.9,8.9-23.1,0-31.9
		l-68.4-68.4c-8.9-8.9-23.1-8.9-31.9,0L5596.3,307.7z"/>
	<path class="st1" d="M4649,340.6c8.9-8.9,8.9-23.1,0-31.9l-68.4-68.4c-8.9-8.9-23.1-8.9-31.9,0l-68.4,68.4
		c-8.9,8.9-8.9,23.1,0,31.9l68.4,68.4c8.9,8.9,23.1,8.9,31.9,0L4649,340.6z"/>
	<path class="st1" d="M4915.1,351.8c-8.9-8.9-23.1-8.9-31.9,0l-68.4,68.4c-8.9,8.9-8.9,23.1,0,31.9l68.4,68.4
		c8.9,8.9,23.1,8.9,31.9,0l68.4-68.4c8.9-8.9,8.9-23.1,0-31.9L4915.1,351.8z"/>
	<path class="st1" d="M4660.2,520.8c8.9,8.9,23.1,8.9,31.9,0l68.4-68.4c8.9-8.9,8.9-23.1,0-31.9l-68.4-68.4
		c-8.9-8.9-23.1-8.9-31.9,0l-68.4,68.4c-8.9,8.9-8.9,23.1,0,31.9L4660.2,520.8z"/>
	<path class="st1" d="M4703,308.7c-8.9,8.9-8.9,23.1,0,31.9l68.4,68.4c8.9,8.9,23.1,8.9,31.9,0l68.4-68.4c8.9-8.9,8.9-23.1,0-31.9
		l-68.4-68.4c-8.9-8.9-23.1-8.9-31.9,0L4703,308.7z"/>
	<path class="st1" d="M4214.2,520.8c8.9,8.9,23.1,8.9,31.9,0l68.4-68.4c8.9-8.9,8.9-23.1,0-31.9l-68.4-68.4
		c-8.9-8.9-23.1-8.9-31.9,0l-68.4,68.4c-8.9,8.9-8.9,23.1,0,31.9L4214.2,520.8z"/>
	<path class="st1" d="M4257,308.7c-8.9,8.9-8.9,23.1,0,31.9l68.4,68.4c8.9,8.9,23.1,8.9,31.9,0l68.4-68.4c8.9-8.9,8.9-23.1,0-31.9
		l-68.4-68.4c-8.9-8.9-23.1-8.9-31.9,0L4257,308.7z"/>
	<path class="st1" d="M4469.1,351.8c-8.9-8.9-23.1-8.9-31.9,0l-68.4,68.4c-8.9,8.9-8.9,23.1,0,31.9l68.4,68.4
		c8.9,8.9,23.1,8.9,31.9,0l68.4-68.4c8.9-8.9,8.9-23.1,0-31.9L4469.1,351.8z"/>
	<path class="st1" d="M1531.4,518.5c8.9,8.9,23.1,8.9,31.9,0l68.4-68.4c8.9-8.9,8.9-23.1,0-31.9l-68.4-68.4
		c-8.9-8.9-23.1-8.9-31.9,0l-68.4,68.4c-8.9,8.9-8.9,23.1,0,31.9L1531.4,518.5z"/>
	<path class="st1" d="M1574.2,306.4c-8.9,8.9-8.9,23.1,0,31.9l68.4,68.4c8.9,8.9,23.1,8.9,31.9,0l68.4-68.4c8.9-8.9,8.9-23.1,0-31.9
		l-68.4-68.4c-8.9-8.9-23.1-8.9-31.9,0L1574.2,306.4z"/>
	<path class="st1" d="M1786.3,349.5c-8.9-8.9-23.1-8.9-31.9,0l-68.4,68.4c-8.9,8.9-8.9,23.1,0,31.9l68.4,68.4
		c8.9,8.9,23.1,8.9,31.9,0l68.4-68.4c8.9-8.9,8.9-23.1,0-31.9L1786.3,349.5z"/>
	<path class="st1" d="M1966.2,338.4c8.9-8.9,8.9-23.1,0-31.9l-68.4-68.4c-8.9-8.9-23.1-8.9-31.9,0l-68.4,68.4
		c-8.9,8.9-8.9,23.1,0,31.9l68.4,68.4c8.9,8.9,23.1,8.9,31.9,0L1966.2,338.4z"/>
	<path class="st1" d="M2232.3,349.5c-8.9-8.9-23.1-8.9-31.9,0l-68.4,68.4c-8.9,8.9-8.9,23.1,0,31.9l68.4,68.4
		c8.9,8.9,23.1,8.9,31.9,0l68.4-68.4c8.9-8.9,8.9-23.1,0-31.9L2232.3,349.5z"/>
	<path class="st1" d="M1977.4,518.5c8.9,8.9,23.1,8.9,31.9,0l68.4-68.4c8.9-8.9,8.9-23.1,0-31.9l-68.4-68.4
		c-8.9-8.9-23.1-8.9-31.9,0l-68.4,68.4c-8.9,8.9-8.9,23.1,0,31.9L1977.4,518.5z"/>
	<path class="st1" d="M2020.2,306.4c-8.9,8.9-8.9,23.1,0,31.9l68.4,68.4c8.9,8.9,23.1,8.9,31.9,0l68.4-68.4c8.9-8.9,8.9-23.1,0-31.9
		l-68.4-68.4c-8.9-8.9-23.1-8.9-31.9,0L2020.2,306.4z"/>
</g>
</svg>
