<?xml version="1.0" encoding="UTF-8"?>
<svg id="Laag_1" data-name="Laag 1" xmlns="http://www.w3.org/2000/svg" version="1.1" viewBox="0 0 281 79.9">
  <defs>
    <style>
      .cls-1 {
        fill: #000;
      }

      .cls-1, .cls-2 {
        stroke-width: 0px;
      }

      .cls-2 {
        fill: #959087;
      }
    </style>
  </defs>
  <g>
    <path class="cls-2" d="M104.8,52.9h14.2l-.8,6.1h-21V23h7.6s0,29.9,0,29.9Z"/>
    <path class="cls-2" d="M145.9,54.9l-1.6,4.9c-3.1-.3-5.2-1.3-6.3-4-2,3-5,4.1-8.3,4.1-5.5,0-8.9-3.5-8.9-8.5s4.6-9.3,12.7-9.3h3.2v-1.4c0-3.4-1.5-4.5-4.9-4.5s-4.5.5-7.3,1.5l-1.7-4.9c3.4-1.4,7.1-2,10.2-2,7.6,0,11,3.4,11,9.6v11.1c0,2.1.6,2.9,1.9,3.4ZM136.7,51.5v-5.2h-2.4c-4.1,0-6,1.5-6,4.5s1.2,3.8,3.6,3.8,3.7-1.1,4.8-3.1Z"/>
    <path class="cls-2" d="M176.4,45.2c0,8.4-4.1,14.7-10.9,14.7s-5.1-1-6.9-3v12.7l-7.4.8V31.4h6.5l.4,3.2c2.2-2.8,5.1-4,8-4,7.1,0,10.3,5.7,10.3,14.6ZM168.7,45.3c0-6.9-1.8-9.1-4.8-9.1s-4,1.5-5.2,3.6v12c1.2,1.8,2.8,2.7,4.7,2.7,3.2,0,5.3-2.8,5.3-9.2Z"/>
    <path class="cls-2" d="M206.7,45.3c0,8.7-4.9,14.6-13.2,14.6s-13.2-5.5-13.2-14.6,4.9-14.6,13.3-14.6c8.2,0,13.1,5.4,13.1,14.6ZM188,45.3c0,6.3,1.9,9.1,5.5,9.1s5.5-2.8,5.5-9.1-1.9-9.1-5.5-9.1c-3.6,0-5.5,2.8-5.5,9.1Z"/>
    <path class="cls-2" d="M231.5,34l-2.8,4.2c-2.2-1.4-4.5-2.2-6.9-2.2s-3.8,1-3.8,2.5.9,2.3,5.8,3.7c5.5,1.5,8.6,3.8,8.6,8.7s-5.4,8.9-11.9,8.9-8.6-1.6-11.2-4l3.6-4.1c2.1,1.6,4.6,2.7,7.4,2.7s4.5-1.1,4.5-3-1-2.8-6.1-4.2c-5.6-1.6-8.2-4.3-8.2-8.5s4.3-8.2,10.9-8.2c4.1.2,7.5,1.4,10.1,3.5Z"/>
    <path class="cls-2" d="M253.6,57.8c-2,1.4-4.7,2.1-7.2,2.1-5.7,0-8.6-3.3-8.6-9.5v-13.7h-4.1v-5.2h4.1v-6l7.4-.9v6.9h6.3l-.7,5.2h-5.6v13.6c0,2.7.9,3.7,2.8,3.7s2-.3,3.1-.9l2.5,4.7Z"/>
    <path class="cls-2" d="M279.3,54.9l-1.6,4.9c-3.1-.3-5.2-1.3-6.3-4-2,3-5,4.1-8.3,4.1-5.5,0-8.9-3.5-8.9-8.5s4.6-9.3,12.7-9.3h3.2v-1.4c0-3.4-1.5-4.5-4.9-4.5s-4.5.5-7.3,1.5l-1.7-4.9c3.4-1.4,7.1-2,10.2-2,7.6,0,11,3.4,11,9.6v11.1c-.1,2.1.6,2.9,1.9,3.4ZM270,51.5v-5.2h-2.4c-4.1,0-6,1.5-6,4.5s1.2,3.8,3.6,3.8,3.7-1.1,4.8-3.1Z"/>
  </g>
  <g>
    <path class="cls-1" d="M34.2,31.4c-5.2,0-9.5,4.2-9.5,9.5s4,9.2,9,9.5h1.1c4.9-.4,8.8-4.4,8.9-9.5,0-5.2-4.2-9.5-9.5-9.5Z"/>
    <path class="cls-1" d="M77,33L47,2.9c-3.9-3.9-10.2-3.9-14,0L2.9,33c-3.9,3.8-3.9,10.1,0,14l30.1,30c3.9,3.9,10.1,3.9,14,0l30-30c3.9-3.9,3.9-10.1,0-14ZM40,59.1c-15.1,0-27.3-11.9-27.8-26.8,0-.4.4-.8.8-.8h1.2c.4,0,.8.4.8.8.3,6.4,3.7,12,8.8,15.2-1.2-1.9-1.9-4.1-1.9-6.5,0-6.7,5.5-12.2,12.2-12.2s12.2,5.5,12.2,12.2-.7,4.5-1.8,6.3c4.9-3.3,8.3-8.8,8.5-15.1,0-.5.4-.8.8-.8h13.3c.3,0,.6.3.6.6-.3,15-12.6,27.1-27.7,27.1Z"/>
  </g>
</svg>